<svg height="384.20624" viewBox="0 0 537.46685 384.20624" width="537.46686" xmlns="http://www.w3.org/2000/svg" xmlns:xlink="http://www.w3.org/1999/xlink"><clipPath id="a"><path d="m0 0h433.1308v309.85h-433.1308z"/></clipPath><clipPath id="b"><path d="m0 37.99998l-.00001077 246.50002h19.00001077l.00001-246.50002z"/></clipPath><clipPath id="c"><path d="m0 0h433.1308v309.85h-433.1308z"/></clipPath><clipPath id="d"><path d="m33.78 30.99998h22.52v14h-22.52z"/></clipPath><clipPath id="e"><path d="m39.58 55.64998h16.72v14h-16.72z"/></clipPath><clipPath id="f"><path d="m47.5 80.29998h8.8v14h-8.8z"/></clipPath><clipPath id="g"><path d="m41.7 104.95h14.6v14h-14.6z"/></clipPath><clipPath id="h"><path d="m35.9 129.6h20.4v14h-20.4z"/></clipPath><clipPath id="i"><path d="m30.1 154.25h26.2v14h-26.2z"/></clipPath><clipPath id="j"><path d="m24.3 178.9h32v14h-32z"/></clipPath><clipPath id="k"><path d="m18.5 203.55h37.8v14h-37.8z"/></clipPath><clipPath id="l"><path d="m0 0h433.1308v309.85h-433.1308z"/></clipPath><clipPath id="m"><path d="m68.79998 0h355.1309v19h-355.1309z"/></clipPath><clipPath id="n"><path d="m64.39998 18.5h8.8v14h-8.8z"/></clipPath><clipPath id="o"><path d="m239.0654 18.5h14.6v14h-14.6z"/></clipPath><clipPath id="p"><path d="m413.7308 18.5h19.4v14h-19.4z"/></clipPath><clipPath id="q"><path d="m0 0h433.1308v309.85h-433.1308z"/></clipPath><clipPath id="r"><path d="m120 85h274v119h-274z"/></clipPath><clipPath id="s"><path d="m123.7525 202.0919c0-.8284-.6716-1.5-1.5-1.5-.8284 0-1.5.6716-1.5 1.5 0 .8285.6716 1.5 1.5 1.5.8284 0 1.5-.6715 1.5-1.5z"/></clipPath><clipPath id="t"><path d="m120 85h274v119h-274z"/></clipPath><clipPath id="u"><path d="m155.0202 154.1044c0-.8284-.6715-1.5-1.5-1.5-.8284 0-1.5.6716-1.5 1.5 0 .8284.6716 1.5 1.5 1.5.8285 0 1.5-.6716 1.5-1.5z"/></clipPath><clipPath id="v"><path d="m120 85h274v119h-274z"/></clipPath><clipPath id="w"><path d="m177.205 148.6079c0-.8284-.6715-1.5-1.5-1.5-.8284 0-1.5.6716-1.5 1.5 0 .8285.6716 1.5 1.5 1.5.8285 0 1.5-.6715 1.5-1.5z"/></clipPath><clipPath id="x"><path d="m120 85h274v119h-274z"/></clipPath><clipPath id="y"><path d="m194.4129 146.3663c0-.8284-.6716-1.5-1.5-1.5-.8284 0-1.5.6716-1.5 1.5 0 .8284.6716 1.5 1.5 1.5.8284 0 1.5-.6716 1.5-1.5z"/></clipPath><clipPath id="z"><path d="m120 85h274v119h-274z"/></clipPath><clipPath id="A"><path d="m208.4727 145.8375c0-.8284-.6715-1.5-1.5-1.5-.8284 0-1.5.6716-1.5 1.5 0 .8285.6716 1.5 1.5 1.5.8285 0 1.5-.6715 1.5-1.5z"/></clipPath><clipPath id="B"><path d="m120 85h274v119h-274z"/></clipPath><clipPath id="C"><path d="m220.3602 134.0765c0-.8284-.6716-1.5-1.5-1.5-.8284 0-1.5.6716-1.5 1.5 0 .8284.6716 1.5 1.5 1.5.8284 0 1.5-.6716 1.5-1.5z"/></clipPath><clipPath id="D"><path d="m120 85h274v119h-274z"/></clipPath><clipPath id="E"><path d="m230.6575 129.5995c0-.8285-.6715-1.5-1.5-1.5-.8284 0-1.5.6715-1.5 1.5 0 .8284.6716 1.5 1.5 1.5.8285 0 1.5-.6716 1.5-1.5z"/></clipPath><clipPath id="F"><path d="m120 85h274v119h-274z"/></clipPath><clipPath id="G"><path d="m239.7405 126.7908c0-.8285-.6716-1.5-1.5-1.5-.8285 0-1.5.6715-1.5 1.5 0 .8284.6715 1.5 1.5 1.5.8284 0 1.5-.6716 1.5-1.5z"/></clipPath><clipPath id="H"><path d="m120 85h274v119h-274z"/></clipPath><clipPath id="I"><path d="m247.8654 120.8666c0-.8285-.6716-1.5-1.5-1.5-.8284 0-1.5.6715-1.5 1.5 0 .8284.6716 1.5 1.5 1.5.8284 0 1.5-.6716 1.5-1.5z"/></clipPath><clipPath id="J"><path d="m120 85h274v119h-274z"/></clipPath><clipPath id="K"><path d="m255.2153 120.8666c0-.8285-.6715-1.5-1.5-1.5-.8284 0-1.5.6715-1.5 1.5 0 .8284.6716 1.5 1.5 1.5.8285 0 1.5-.6716 1.5-1.5z"/></clipPath><clipPath id="L"><path d="m120 85h274v119h-274z"/></clipPath><clipPath id="M"><path d="m261.9253 113.9018c0-.8284-.6716-1.5-1.5-1.5-.8285 0-1.5.6716-1.5 1.5 0 .8284.6715 1.5 1.5 1.5.8284 0 1.5-.6716 1.5-1.5z"/></clipPath><clipPath id="N"><path d="m120 85h274v119h-274z"/></clipPath><clipPath id="O"><path d="m268.0978 102.1408c0-.8285-.6716-1.5-1.5-1.5-.8284 0-1.5.6715-1.5 1.5 0 .8284.6716 1.5 1.5 1.5.8284 0 1.5-.6716 1.5-1.5z"/></clipPath><clipPath id="P"><path d="m120 85h274v119h-274z"/></clipPath><clipPath id="Q"><path d="m273.8127 94.72037c0-.82842-.6716-1.5-1.5-1.5-.8284 0-1.5.67158-1.5 1.5 0 .82843.6716 1.5 1.5 1.5.8284 0 1.5-.67157 1.5-1.5z"/></clipPath><clipPath id="R"><path d="m120 85h274v119h-274z"/></clipPath><clipPath id="S"><path d="m293.193 87.29998c0-.82842-.6716-1.5-1.5-1.5-.8284 0-1.5.67158-1.5 1.5 0 .82843.6716 1.5 1.5 1.5.8284 0 1.5-.67157 1.5-1.5z"/></clipPath><clipPath id="T"><path d="m120 85h274v119h-274z"/></clipPath><clipPath id="U"><path d="m297.3624 87.29998c0-.82842-.6716-1.5-1.5-1.5-.8284 0-1.5.67158-1.5 1.5 0 .82843.6716 1.5 1.5 1.5.8284 0 1.5-.67157 1.5-1.5z"/></clipPath><clipPath id="V"><path d="m120 85h274v119h-274z"/></clipPath><clipPath id="W"><path d="m301.3179 87.29998c0-.82842-.6715-1.5-1.5-1.5-.8284 0-1.5.67158-1.5 1.5 0 .82843.6716 1.5 1.5 1.5.8285 0 1.5-.67157 1.5-1.5z"/></clipPath><clipPath id="X"><path d="m120 85h274v119h-274z"/></clipPath><clipPath id="Y"><path d="m305.0804 87.29998c0-.82842-.6716-1.5-1.5-1.5-.8284 0-1.5.67158-1.5 1.5 0 .82843.6716 1.5 1.5 1.5.8284 0 1.5-.67157 1.5-1.5z"/></clipPath><clipPath id="Z"><path d="m120 85h274v119h-274z"/></clipPath><clipPath id="aa"><path d="m315.3778 87.29998c0-.82842-.6716-1.5-1.5-1.5-.8284 0-1.5.67158-1.5 1.5 0 .82843.6716 1.5 1.5 1.5.8284 0 1.5-.67157 1.5-1.5z"/></clipPath><clipPath id="ab"><path d="m120 85h274v119h-274z"/></clipPath><clipPath id="ac"><path d="m324.4607 87.29998c0-.82842-.6716-1.5-1.5-1.5-.8284 0-1.5.67158-1.5 1.5 0 .82843.6716 1.5 1.5 1.5.8284 0 1.5-.67157 1.5-1.5z"/></clipPath><clipPath id="ad"><path d="m120 85h274v119h-274z"/></clipPath><clipPath id="ae"><path d="m332.5857 87.29998c0-.82842-.6716-1.5-1.5-1.5-.8285 0-1.5.67158-1.5 1.5 0 .82843.6715 1.5 1.5 1.5.8284 0 1.5-.67157 1.5-1.5z"/></clipPath><clipPath id="af"><path d="m120 85h274v119h-274z"/></clipPath><clipPath id="ag"><path d="m393.3881 87.29998c0-.82842-.6716-1.5-1.5-1.5-.8284 0-1.5.67158-1.5 1.5 0 .82843.6716 1.5 1.5 1.5.8284 0 1.5-.67157 1.5-1.5z"/></clipPath><clipPath id="ah"><path d="m120 85h274v119h-274z"/></clipPath><clipPath id="ai"><path d="m66.79998 35.99998h359.1309v250.5h-359.1309z"/></clipPath><clipPath id="aj"><path d="m68.79998 271.5h80.068v13h-80.068z"/></clipPath><clipPath id="ak"><path d="m68.79998 256.5h56.594v13h-56.594z"/></clipPath><clipPath id="al"><path d="m0 0h433.1308v309.85h-433.1308z"/></clipPath><clipPath id="am"><path d="m0 0h433.1308v309.85h-433.1308z"/></clipPath><clipPath id="an"><path d="m158 300h10v8h-10z"/></clipPath><clipPath id="ao"><path d="m158 300h10v8h-10z"/></clipPath><g transform="matrix(1.25 0 0 -1.25 -2.6581625 384.20625)"><g clip-path="url(#a)" fill="none" stroke="#000" stroke-linecap="square"><g transform="matrix(1 0 0 -1 0 309.85)"><path d="m68.5 271.35v-246.00001m2.5 246.00001h-5m5-24h-5m5-25h-5m5-24h-5m5-25h-5m5-25h-5m5-24h-5m5-25.00001h-5"/></g></g><g clip-path="url(#b)"><g clip-path="url(#c)"><g transform="matrix(0 1 -1 0 10.65703 45.73348)"><g transform="scale(1 -1)"><path d="m1.507-7.8815q.143 0 .209.0385.0715.033.1595.143l4.565 5.94q-.0165-.143-.022-.275-.0055-.1375-.0055-.264v-5.5825h.935v7.8815h-.539q-.1265 0-.2145-.044-.0825-.044-.165-.1485l-4.5595-5.9345q.011.1375.0165.2695.0055.132.0055.242v5.6155h-.935v-7.8815z"/><path d="m9.966-5.5715v3.553q0 .6325.2915.979.2915.3465.88.3465.429 0 .8085-.2035.3795-.2035.6985-.5665v-4.1085h.979v5.5715h-.583q-.209 0-.264-.2035l-.077-.5995q-.363.4015-.814.649-.451.242-1.034.242-.4565 0-.8085-.1485-.3465-.154-.583-.429-.2365-.275-.3575-.6655-.1155-.3905-.1155-.8635v-3.553z"/><path d="m15.235 0v-5.5715h.583q.209 0 .264.2035l.0715.572q.308-.3795.6875-.6215.385-.242.891-.242.5665 0 .913.3135.352.3135.506.847.1155-.3025.3025-.5225.1925-.22.429-.363.2365-.143.5005-.209.2695-.066.5445-.066.44 0 .781.143.3465.1375.583.407.242.2695.3685.6655.1265.3905.1265.8965v3.5475h-.979v-3.5475q0-.6545-.286-.99-.286-.341-.8305-.341-.242 0-.462.088-.2145.0825-.3795.2475-.165.165-.264.418-.0935.2475-.0935.5775v3.5475h-.979v-3.5475q0-.671-.2695-1.001-.2695-.33-.7865-.33-.363 0-.6765.198-.308.1925-.5665.528v4.1525z"/><path d="m24.298999 0v-8.1015h.9845v3.333q.3465-.4015.792-.6435.451-.2475 1.0285-.2475.484 0 .8745.1815.3905.1815.6655.5445.275.3575.4235.891.1485.528.1485 1.221 0 .616-.165 1.1495-.165.528-.4785.9185-.308.385-.759.6105-.4455.22-1.0065.22-.539 0-.9185-.209-.374-.209-.6545-.583l-.0495.506q-.044.209-.253.209zm2.486-4.8785q-.4785 0-.8415.22-.3575.22-.66.6215v2.695q.264.363.583.5115.3245.1485.7205.1485.781 0 1.199-.5555.418-.5555.418-1.584 0-.5445-.099-.935-.0935-.3905-.275-.638-.1815-.253-.4455-.3685-.264-.1155-.5995-.1155z"/><path d="m32.6205-5.6595q.5005 0 .924.1705.4235.165.7315.484.308.3135.4785.781.176.462.176 1.056 0 .231-.0495.308-.0495.077-.187.077h-3.707q.011.528.143.9185.132.3905.363.6545.231.2585.55.3905.319.1265.715.1265.3685 0 .6325-.0825.2695-.088.462-.187.1925-.099.319-.1815.132-.088.2255-.088.121 0 .187.0935l.275.3575q-.1815.22-.4345.385-.253.1595-.5445.264-.286.1045-.594.154-.308.055-.6105.055-.5775 0-1.067-.1925-.484-.198-.8415-.572-.352-.3795-.55-.935-.198-.5555-.198-1.276 0-.583.176-1.089.1815-.506.517-.8745.3355-.374.8195-.583.484-.2145 1.089-.2145zm.022.7205q-.7095 0-1.1165.4125-.407.407-.506 1.133h3.0305q0-.341-.0935-.6215-.0935-.286-.275-.4895-.1815-.209-.4455-.319-.2585-.1155-.594-.1155z"/><path d="m36.178999 0v-5.5715h.561q.1595 0 .22.0605.0605.0605.0825.209l.066.869q.286-.583.704-.9075.4235-.33.99-.33.231 0 .418.055.187.0495.3465.143l-.1265.7315q-.0385.1375-.1705.1375-.077 0-.2365-.0495-.1595-.055-.4455-.055-.5115 0-.858.297-.341.297-.572.8635v3.5475z"/><path d="m44.989999-5.6595q.6105 0 1.1.2035.495.2035.836.5775.3465.374.528.9075.187.528.187 1.1825 0 .66-.187 1.188-.1815.528-.528.902-.341.374-.836.5775-.4895.198-1.1.198-.6105 0-1.1055-.198-.4895-.2035-.836-.5775-.3465-.374-.5335-.902-.187-.528-.187-1.188 0-.6545.187-1.1825.187-.5335.5335-.9075.3465-.374.836-.5775.495-.2035 1.1055-.2035zm0 4.972q.825 0 1.232-.55.407-.5555.407-1.5455 0-.9955-.407-1.551-.407-.5555-1.232-.5555-.418 0-.726.143-.308.143-.517.4125-.2035.2695-.308.6655-.099.3905-.099.8855 0 .495.099.8855.1045.3905.308.66.209.264.517.407.308.143.726.143z"/><path d="m49.071 0v-4.7355l-.616-.0715q-.1155-.0275-.1925-.0825-.0715-.0605-.0715-.1705v-.4015h.88v-.539q0-.4785.132-.847.1375-.374.385-.627.253-.2585.605-.3905.352-.132.792-.132.374 0 .693.11l-.022.4895q-.0055.11-.0935.132-.088.022-.2475.022h-.1705q-.253 0-.462.066-.2035.066-.352.2145-.1485.1485-.231.3905-.077.242-.077.5995v.5115h1.6115v.7095h-1.5785v4.752z"/><path d="m58.481498-4.5815q-.044.0605-.088.0935-.044.033-.1265.033-.0825 0-.1815-.066-.0935-.0715-.242-.154-.1485-.0825-.363-.1485-.209-.0715-.517-.0715-.407 0-.7205.1485-.3135.143-.528.418-.209.275-.319.6655-.1045.3905-.1045.8745 0 .506.1155.902.1155.3905.3245.66.209.264.506.407.3025.1375.6765.1375.3575 0 .5885-.0825.231-.088.385-.1925.154-.1045.253-.187.099-.088.198-.088.1265 0 .187.0935l.275.3575q-.363.4455-.9075.6545-.5445.2035-1.1495.2035-.5225 0-.9735-.1925-.4455-.1925-.7755-.5555-.33-.3685-.5225-.902-.187-.5335-.187-1.2155 0-.6215.1705-1.1495.176-.528.506-.9075.3355-.385.825-.5995.4895-.2145 1.122-.2145.583 0 1.034.1925.451.187.7975.5335z"/><path d="m62.072999-5.6595q.6105 0 1.1.2035.495.2035.836.5775.3465.374.528.9075.187.528.187 1.1825 0 .66-.187 1.188-.1815.528-.528.902-.341.374-.836.5775-.4895.198-1.1.198-.6105 0-1.1055-.198-.4895-.2035-.836-.5775-.3465-.374-.5335-.902-.187-.528-.187-1.188 0-.6545.187-1.1825.187-.5335.5335-.9075.3465-.374.836-.5775.495-.2035 1.1055-.2035zm0 4.972q.825 0 1.232-.55.407-.5555.407-1.5455 0-.9955-.407-1.551-.407-.5555-1.232-.5555-.418 0-.726.143-.308.143-.517.4125-.2035.2695-.308.6655-.099.3905-.099.8855 0 .495.099.8855.1045.3905.308.66.209.264.517.407.308.143.726.143z"/><path d="m65.933997 0v-5.5715h.583q.209 0 .264.2035l.0715.572q.308-.3795.6875-.6215.385-.242.891-.242.5665 0 .913.3135.352.3135.506.847.1155-.3025.3025-.5225.1925-.22.429-.363.2365-.143.5005-.209.2695-.066.5445-.066.44 0 .781.143.3465.1375.583.407.242.2695.3685.6655.1265.3905.1265.8965v3.5475h-.979v-3.5475q0-.6545-.286-.99-.286-.341-.8305-.341-.242 0-.462.088-.2145.0825-.3795.2475-.165.165-.264.418-.0935.2475-.0935.5775v3.5475h-.979v-3.5475q0-.671-.2695-1.001-.2695-.33-.7865-.33-.363 0-.6765.198-.308.1925-.5665.528v4.1525z"/><path d="m74.965003 0v-5.5715h.583q.209 0 .264.2035l.0715.572q.308-.3795.6875-.6215.385-.242.891-.242.5665 0 .913.3135.352.3135.506.847.1155-.3025.3025-.5225.1925-.22.429-.363.2365-.143.5005-.209.2695-.066.5445-.066.44 0 .781.143.3465.1375.583.407.242.2695.3685.6655.1265.3905.1265.8965v3.5475h-.979v-3.5475q0-.6545-.286-.99-.286-.341-.8305-.341-.242 0-.462.088-.2145.0825-.3795.2475-.165.165-.264.418-.0935.2475-.0935.5775v3.5475h-.979v-3.5475q0-.671-.2695-1.001-.2695-.33-.7865-.33-.363 0-.6765.198-.308.1925-.5665.528v4.1525z"/><path d="m85.085001-5.5715v5.5715h-.979v-5.5715zm.22-1.749q0 .143-.0605.2695-.055.121-.154.22-.0935.0935-.22.1485-.1265.055-.2695.055-.143 0-.2695-.055-.121-.055-.22-.1485-.0935-.099-.1485-.22-.055-.1265-.055-.2695 0-.143.055-.2695.055-.132.1485-.2255.099-.099.22-.154.1265-.055.2695-.055.143 0 .2695.055.1265.055.22.154.099.0935.154.2255.0605.1265.0605.2695z"/><path d="m88.500503.088q-.66 0-1.0175-.3685-.352-.3685-.352-1.0615v-3.41h-.671q-.088 0-.1485-.0495-.0605-.055-.0605-.165v-.3905l.913-.1155.2255-1.7215q.011-.0825.0715-.132.0605-.055.154-.055h.495v1.9195h1.595v.7095h-1.595v3.344q0 .352.1705.5225.1705.1705.44.1705.154 0 .264-.0385.1155-.044.198-.0935.0825-.0495.1375-.088.0605-.044.1045-.044.077 0 .1375.0935l.286.4675q-.253.2365-.6105.374-.3575.132-.737.132z"/><path d="m94.105-4.653q-.066.121-.2035.121-.0825 0-.187-.0605-.1045-.0605-.2585-.132-.1485-.077-.3575-.1375-.209-.066-.495-.066-.2475 0-.4455.066-.198.0605-.341.1705-.1375.11-.2145.2585-.0715.143-.0715.3135 0 .2145.121.3575.1265.143.33.2475.2035.1045.462.187.2585.077.528.1705.275.088.5335.198.2585.11.462.275.2035.165.3245.407.1265.2365.1265.572 0 .385-.1375.715-.1375.3245-.407.5665-.2695.2365-.66.374-.3905.1375-.902.1375-.583 0-1.056-.187-.473-.1925-.803-.4895l.231-.374q.044-.0715.1045-.11.0605-.0385.1595-.0385.099 0 .209.077.11.077.264.1705.1595.0935.3795.1705.2255.077.561.077.286 0 .5005-.0715.2145-.077.3575-.2035.143-.1265.209-.2915.0715-.165.0715-.352 0-.231-.1265-.3795-.121-.154-.3245-.2585-.2035-.11-.4675-.187-.2585-.0825-.5335-.1705-.2695-.088-.5335-.198-.2585-.1155-.462-.286-.2035-.1705-.33-.418-.121-.253-.121-.6105 0-.319.132-.6105.132-.297.385-.517.253-.2255.6215-.3575.3685-.132.8415-.132.55 0 .9845.176.44.1705.759.473z"/><path d="m97.086003-5.5715h.77q.121 0 .198.0605.077.0605.1045.143l1.067 3.586q.044.198.0825.385.0385.1815.066.3685.044-.187.099-.3685.055-.187.1155-.385l1.176997-3.608q.0275-.0825.0935-.1375.0715-.055.176-.055h.4235q.11 0 .1815.055.0715.055.099.1375l1.1495 3.608q.0605.1925.1045.3795.0495.187.0935.3685.0275-.1815.0715-.3795.044-.198.0935-.3685l1.089-3.586q.0275-.088.1045-.143.077-.0605.1815-.0605h.737l-1.804 5.5715h-.7755q-.143 0-.198-.187l-1.232-3.7785q-.044-.1265-.0715-.253-.0275-.132-.055-.2585-.0275.1265-.055.2585-.0275.132-.0715.2585l-1.248497 3.773q-.0605.187-.2255.187h-.737z"/><path d="m107.327-5.5715v5.5715h-.979v-5.5715zm.22-1.749q0 .143-.0605.2695-.055.121-.154.22-.0935.0935-.22.1485-.1265.055-.2695.055-.143 0-.2695-.055-.121-.055-.22-.1485-.0935-.099-.1485-.22-.055-.1265-.055-.2695 0-.143.055-.2695.055-.132.1485-.2255.099-.099.22-.154.1265-.055.2695-.055.143 0 .2695.055.1265.055.22.154.099.0935.154.2255.0605.1265.0605.2695z"/><path d="m110.7425.088q-.66 0-1.0175-.3685-.352-.3685-.352-1.0615v-3.41h-.671q-.088 0-.1485-.0495-.0605-.055-.0605-.165v-.3905l.913-.1155.2255-1.7215q.011-.0825.0715-.132.0605-.055.154-.055h.495v1.9195h1.595v.7095h-1.595v3.344q0 .352.1705.5225.1705.1705.44.1705.154 0 .264-.0385.1155-.044.198-.0935.0825-.0495.1375-.088.0605-.044.1045-.044.077 0 .1375.0935l.286.4675q-.253.2365-.6105.374-.3575.132-.737.132z"/><path d="m113.157 0v-8.1015h.979v3.278q.3575-.3795.792-.605.4345-.231 1.001-.231.4565 0 .803.154.352.1485.583.429.2365.275.3575.6655.121.3905.121.8635v3.5475h-.979v-3.5475q0-.6325-.2915-.979-.286-.352-.88-.352-.4345 0-.814.209-.374.209-.693.5665v4.103z"/><path d="m123.0845.088q-.66 0-1.0175-.3685-.352-.3685-.352-1.0615v-3.41h-.671q-.088 0-.1485-.0495-.0605-.055-.0605-.165v-.3905l.913-.1155.2255-1.7215q.011-.0825.0715-.132.0605-.055.154-.055h.495v1.9195h1.595v.7095h-1.595v3.344q0 .352.1705.5225.1705.1705.44.1705.154 0 .264-.0385.1155-.044.198-.0935.0825-.0495.1375-.088.0605-.044.1045-.044.077 0 .1375.0935l.286.4675q-.253.2365-.6105.374-.3575.132-.737.132z"/><path d="m125.499 0v-8.1015h.979v3.278q.3575-.3795.792-.605.4345-.231 1.001-.231.4565 0 .803.154.352.1485.583.429.2365.275.3575.6655.121.3905.121.8635v3.5475h-.979v-3.5475q0-.6325-.2915-.979-.286-.352-.88-.352-.4345 0-.814.209-.374.209-.693.5665v4.103z"/><path d="m135.707 0h-.4345q-.143 0-.231-.044-.088-.044-.1155-.187l-.11-.517q-.22.198-.429.3575-.209.154-.44.264-.231.1045-.495.1595-.2585.055-.5775.055-.3245 0-.6105-.088-.2805-.0935-.4895-.275-.209-.1815-.3355-.4565-.121-.2805-.121-.66 0-.33.1815-.6325.1815-.308.583-.5445.407-.2365 1.0615-.385.6545-.154 1.6005-.176v-.4345q0-.649-.2805-.979-.275-.3355-.8195-.3355-.3575 0-.605.0935-.242.088-.4235.2035-.176.11-.308.2035-.1265.088-.253.088-.099 0-.176-.0495-.0715-.055-.1155-.132l-.176-.3135q.462-.4455.9955-.6655.5335-.22 1.1825-.22.4675 0 .8305.154.363.154.6105.429.2475.275.374.6655.1265.3905.1265.858zm-2.541-.5995q.2585 0 .473-.0495.2145-.055.4015-.1485.1925-.099.363-.2365.176-.1375.341-.3135v-1.1605q-.6765.022-1.1495.11-.473.0825-.77.22-.297.1375-.4345.3245-.132.187-.132.418 0 .22.0715.3795.0715.1595.1925.264.121.099.286.1485.165.044.3575.044z"/><path d="m138.88051.088q-.66 0-1.0175-.3685-.352-.3685-.352-1.0615v-3.41h-.671q-.088 0-.1485-.0495-.0605-.055-.0605-.165v-.3905l.913-.1155.2255-1.7215q.011-.0825.0715-.132.0605-.055.154-.055h.495v1.9195h1.595v.7095h-1.595v3.344q0 .352.1705.5225.1705.1705.44.1705.154 0 .264-.0385.1155-.044.198-.0935.0825-.0495.1375-.088.0605-.044.1045-.044.077 0 .1375.0935l.286.4675q-.253.2365-.6105.374-.3575.132-.737.132z"/><path d="m143.41801 0v-5.5715h.583q.209 0 .264.2035l.0715.572q.308-.3795.6875-.6215.385-.242.891-.242.5665 0 .913.3135.352.3135.506.847.1155-.3025.3025-.5225.1925-.22.429-.363.2365-.143.5005-.209.2695-.066.5445-.066.44 0 .781.143.3465.1375.583.407.242.2695.3685.6655.1265.3905.1265.8965v3.5475h-.979v-3.5475q0-.6545-.286-.99-.286-.341-.8305-.341-.242 0-.462.088-.2145.0825-.3795.2475-.165.165-.264.418-.0935.2475-.0935.5775v3.5475h-.979v-3.5475q0-.671-.2695-1.001-.2695-.33-.7865-.33-.363 0-.6765.198-.308.1925-.5665.528v4.1525z"/><path d="m156.541 0h-.4345q-.143 0-.231-.044-.088-.044-.1155-.187l-.11-.517q-.22.198-.429.3575-.209.154-.44.264-.231.1045-.495.1595-.2585.055-.5775.055-.3245 0-.6105-.088-.2805-.0935-.4895-.275-.209-.1815-.3355-.4565-.121-.2805-.121-.66 0-.33.1815-.6325.1815-.308.583-.5445.407-.2365 1.0615-.385.6545-.154 1.6005-.176v-.4345q0-.649-.2805-.979-.275-.3355-.8195-.3355-.3575 0-.605.0935-.242.088-.4235.2035-.176.11-.308.2035-.1265.088-.253.088-.099 0-.176-.0495-.0715-.055-.1155-.132l-.176-.3135q.462-.4455.9955-.6655.5335-.22 1.1825-.22.4675 0 .8305.154.363.154.6105.429.2475.275.374.6655.1265.3905.1265.858zm-2.541-.5995q.2585 0 .473-.0495.2145-.055.4015-.1485.1925-.099.363-.2365.176-.1375.341-.3135v-1.1605q-.6765.022-1.1495.11-.473.0825-.77.22-.297.1375-.4345.3245-.132.187-.132.418 0 .22.0715.3795.0715.1595.1925.264.121.099.286.1485.165.044.3575.044z"/><path d="m158.02601 0v-5.5715h.583q.209 0 .264.2035l.077.605q.363-.4015.8085-.649.451-.2475 1.0395-.2475.4565 0 .803.154.352.1485.583.429.2365.275.3575.6655.121.3905.121.8635v3.5475h-.979v-3.5475q0-.6325-.2915-.979-.286-.352-.88-.352-.4345 0-.814.209-.374.209-.693.5665v4.103z"/><path d="m165.59949 1.6445q-.0495.11-.1265.176-.0715.066-.2255.066h-.726l1.0175-2.211-2.299-5.247h.847q.1265 0 .198.066.0715.0605.1045.1375l1.4905 3.509q.0495.121.0825.242.0385.121.066.2475.0385-.1265.077-.2475.0385-.121.088-.2475l1.4465-3.5035q.033-.088.11-.143.0825-.0605.176-.0605h.781z"/><path d="m171.721 1.8865v-7.458h.583q.209 0 .264.2035l.0825.66q.3575-.4345.814-.6985.462-.264 1.0615-.264.4785 0 .869.187.3905.1815.6655.5445.275.3575.4235.891.1485.5335.1485 1.2265 0 .616-.165 1.1495-.165.528-.473.9185-.308.385-.759.6105-.4455.22-1.0065.22-.517 0-.8855-.1705-.363-.1705-.6435-.484v2.464zm2.4805-6.765q-.4785 0-.8415.22-.3575.22-.66.6215v2.695q.2695.363.5885.5115.3245.1485.7205.1485.7755 0 1.1935-.5555.418-.5555.418-1.584 0-.5445-.099-.935-.0935-.3905-.275-.638-.1815-.253-.4455-.3685-.264-.1155-.5995-.1155z"/><path d="m181.88501 0h-.4345q-.143 0-.231-.044-.088-.044-.1155-.187l-.11-.517q-.22.198-.429.3575-.209.154-.44.264-.231.1045-.495.1595-.2585.055-.5775.055-.3245 0-.6105-.088-.2805-.0935-.4895-.275-.209-.1815-.3355-.4565-.121-.2805-.121-.66 0-.33.1815-.6325.1815-.308.583-.5445.407-.2365 1.0615-.385.6545-.154 1.6005-.176v-.4345q0-.649-.2805-.979-.275-.3355-.8195-.3355-.3575 0-.605.0935-.242.088-.4235.2035-.176.11-.308.2035-.1265.088-.253.088-.099 0-.176-.0495-.0715-.055-.1155-.132l-.176-.3135q.462-.4455.9955-.6655.5335-.22 1.1825-.22.4675 0 .8305.154.363.154.6105.429.2475.275.374.6655.1265.3905.1265.858zm-2.541-.5995q.2585 0 .473-.0495.2145-.055.4015-.1485.1925-.099.363-.2365.176-.1375.341-.3135v-1.1605q-.6765.022-1.1495.11-.473.0825-.77.22-.297.1375-.4345.3245-.132.187-.132.418 0 .22.0715.3795.0715.1595.1925.264.121.099.286.1485.165.044.3575.044z"/><path d="m183.37 0v-5.5715h.561q.1595 0 .22.0605.0605.0605.0825.209l.066.869q.286-.583.704-.9075.4235-.33.99-.33.231 0 .418.055.187.0495.3465.143l-.1265.7315q-.0385.1375-.1705.1375-.077 0-.2365-.0495-.1595-.055-.4455-.055-.5115 0-.858.297-.341.297-.572.8635v3.5475z"/><path d="m190.0085-5.6595q.5005 0 .924.1705.4235.165.7315.484.308.3135.4785.781.176.462.176 1.056 0 .231-.0495.308-.0495.077-.187.077h-3.707q.011.528.143.9185.132.3905.363.6545.231.2585.55.3905.319.1265.715.1265.3685 0 .6325-.0825.2695-.088.462-.187.1925-.099.319-.1815.132-.088.2255-.088.121 0 .187.0935l.275.3575q-.1815.22-.4345.385-.253.1595-.5445.264-.286.1045-.594.154-.308.055-.6105.055-.5775 0-1.067-.1925-.484-.198-.8415-.572-.352-.3795-.55-.935-.198-.5555-.198-1.276 0-.583.176-1.089.1815-.506.517-.8745.3355-.374.8195-.583.484-.2145 1.089-.2145zm.022.7205q-.7095 0-1.1165.4125-.407.407-.506 1.133h3.0305q0-.341-.0935-.6215-.0935-.286-.275-.4895-.1815-.209-.4455-.319-.2585-.1155-.594-.1155z"/><path d="m193.56701 0v-5.5715h.583q.209 0 .264.2035l.077.605q.363-.4015.8085-.649.451-.2475 1.0395-.2475.4565 0 .803.154.352.1485.583.429.2365.275.3575.6655.121.3905.121.8635v3.5475h-.979v-3.5475q0-.6325-.2915-.979-.286-.352-.88-.352-.4345 0-.814.209-.374.209-.693.5665v4.103z"/><path d="m201.3715.088q-.66 0-1.0175-.3685-.352-.3685-.352-1.0615v-3.41h-.671q-.088 0-.1485-.0495-.0605-.055-.0605-.165v-.3905l.913-.1155.2255-1.7215q.011-.0825.0715-.132.0605-.055.154-.055h.495v1.9195h1.595v.7095h-1.595v3.344q0 .352.1705.5225.1705.1705.44.1705.154 0 .264-.0385.1155-.044.198-.0935.0825-.0495.1375-.088.0605-.044.1045-.044.077 0 .1375.0935l.286.4675q-.253.2365-.6105.374-.3575.132-.737.132z"/><path d="m206.976-4.653q-.066.121-.2035.121-.0825 0-.187-.0605-.1045-.0605-.2585-.132-.1485-.077-.3575-.1375-.209-.066-.495-.066-.2475 0-.4455.066-.198.0605-.341.1705-.1375.11-.2145.2585-.0715.143-.0715.3135 0 .2145.121.3575.1265.143.33.2475.2035.1045.462.187.2585.077.528.1705.275.088.5335.198.2585.11.462.275.2035.165.3245.407.1265.2365.1265.572 0 .385-.1375.715-.1375.3245-.407.5665-.2695.2365-.66.374-.3905.1375-.902.1375-.583 0-1.056-.187-.473-.1925-.803-.4895l.231-.374q.044-.0715.1045-.11.0605-.0385.1595-.0385.099 0 .209.077.11.077.264.1705.1595.0935.3795.1705.2255.077.561.077.286 0 .5005-.0715.2145-.077.3575-.2035.143-.1265.209-.2915.0715-.165.0715-.352 0-.231-.1265-.3795-.121-.154-.3245-.2585-.2035-.11-.4675-.187-.2585-.0825-.5335-.1705-.2695-.088-.5335-.198-.2585-.1155-.462-.286-.2035-.1705-.33-.418-.121-.253-.121-.6105 0-.319.132-.6105.132-.297.385-.517.253-.2255.6215-.3575.3685-.132.8415-.132.55 0 .9845.176.44.1705.759.473z"/><path d="m211.4695-3.4595q0 1.177.3025 2.288.3025 1.1055.8745 2.112.033.0605.044.1045.011.044.011.088 0 .077-.0385.1265-.0385.0495-.099.088l-.4345.264q-.4125-.6325-.704-1.254-.286-.6215-.4675-1.2485-.176-.627-.2585-1.2595-.0825-.638-.0825-1.309 0-.6655.0825-1.3035.0825-.638.2585-1.2595.1815-.627.4675-1.2485.2915-.6215.704-1.2595l.4345.2695q.0605.0385.099.088.0385.0495.0385.1265 0 .0825-.055.187-.5775 1.001-.88 2.112-.297 1.111-.297 2.288z"/><path d="m215.07199-8.1015v8.1015h-.979v-8.1015z"/><path d="m219.054-5.6595q.6105 0 1.1.2035.495.2035.836.5775.3465.374.528.9075.187.528.187 1.1825 0 .66-.187 1.188-.1815.528-.528.902-.341.374-.836.5775-.4895.198-1.1.198-.6105 0-1.1055-.198-.4895-.2035-.836-.5775-.3465-.374-.5335-.902-.187-.528-.187-1.188 0-.6545.187-1.1825.187-.5335.5335-.9075.3465-.374.836-.5775.495-.2035 1.1055-.2035zm0 4.972q.825 0 1.232-.55.407-.5555.407-1.5455 0-.9955-.407-1.551-.407-.5555-1.232-.5555-.418 0-.726.143-.308.143-.517.4125-.2035.2695-.308.6655-.099.3905-.099.8855 0 .495.099.8855.1045.3905.308.66.209.264.517.407.308.143.726.143z"/><path d="m224.7905-5.665q.363 0 .6765.0825.319.077.5775.231h1.5125v.363q0 .1815-.231.231l-.6325.088q.187.3575.187.7975 0 .407-.1595.7425-.154.33-.4345.5665-.275.2365-.66.363-.3795.1265-.836.1265-.3905 0-.737-.0935-.176.11-.2695.2365-.088.1265-.088.2475 0 .198.1595.3025.1595.099.4235.143.264.044.5995.055.3355.011.682.0385.352.022.6875.0825.3355.0605.5995.198.264.1375.4235.3795.1595.242.1595.627 0 .3575-.1815.693-.176.3355-.5115.594-.3355.264-.8195.418-.484.1595-1.0945.1595-.6105 0-1.0725-.121-.4565-.121-.759-.3245-.3025-.2035-.4565-.473-.1485-.264-.1485-.5555 0-.4125.2585-.6985.264-.2915.7205-.462-.2365-.11-.3795-.2915-.1375-.187-.1375-.495 0-.121.044-.2475.044-.132.132-.2585.0935-.1265.2255-.242.132-.1155.308-.2035-.4125-.231-.649-.6105-.231-.385-.231-.8965 0-.407.154-.737.1595-.3355.44-.5665.2805-.2365.6655-.363.3905-.1265.8525-.1265zm1.738 5.9675q0-.209-.1155-.3355-.1155-.1265-.3135-.1925-.198-.0715-.4565-.1045-.2585-.033-.5445-.044-.286-.0165-.583-.033-.297-.0165-.5665-.0605-.3135.1485-.5115.363-.1925.2145-.1925.5115 0 .187.0935.3465.099.165.297.2805.198.121.495.187.3025.0715.7095.0715.396 0 .7095-.0715.3135-.0715.528-.2035.22-.132.3355-.3135.1155-.1815.1155-.4015zm-1.738-3.025q.297 0 .5225-.0825.231-.0825.385-.231.154-.1485.231-.352.077-.209.077-.4565 0-.5115-.3135-.814-.308-.3025-.902-.3025-.5885 0-.902.3025-.308.3025-.308.814 0 .2475.077.4565.0825.2035.2365.352.154.1485.3795.231.2255.0825.517.0825z"/><path d="m229.372-3.4595q0-1.177-.3025-2.288-.297-1.111-.8745-2.112-.055-.1045-.055-.187 0-.077.0385-.1265.0385-.0495.099-.088l.4345-.2695q.4125.638.6985 1.2595.2915.6215.4675 1.2485.1815.6215.264 1.2595.0825.638.0825 1.3035 0 .671-.0825 1.309-.0825.6325-.264 1.2595-.176.627-.4675 1.2485-.286.6215-.6985 1.254l-.4345-.264q-.0605-.0385-.099-.088-.0385-.0495-.0385-.1265 0-.044.011-.088.011-.044.044-.1045.572-1.0065.8745-2.112.3025-1.111.3025-2.288z"/></g></g></g></g><g clip-path="url(#d)"><g transform="translate(35 34)"><g transform="scale(1 -1)"><path d="m5.5-3.58q0 .94-.205 1.63-.2.685-.55 1.135-.35.45-.83.67-.475.22-1.02.22-.55 0-1.025-.22-.47-.22-.82-.67-.35-.45-.55-1.135-.2-.69-.2-1.63 0-.94.2-1.63.2-.69.55-1.14.35-.455.82-.675.475-.22 1.025-.22.545 0 1.02.22.48.22.83.675.35.45.55 1.14.205.69.205 1.63zm-.925 0q0-.82-.14-1.375-.135-.56-.37-.9-.23-.34-.535-.485-.305-.15-.635-.15-.33 0-.635.15-.305.145-.535.485-.23.34-.37.9-.135.555-.135 1.375 0 .82.135 1.375.14.555.37.895.23.34.535.49.305.145.635.145.33 0 .635-.145.305-.15.535-.49.235-.34.37-.895.14-.555.14-1.375z"/><path d="m6.2400002-.55q0-.13.045-.245.05-.115.13-.2.085-.085.2-.135.115-.05.245-.05.13 0 .245.05.115.05.2.135.085.085.13.2.05.115.05.245 0 .135-.05.25-.045.11-.13.195-.085.085-.2.13-.115.05-.245.05-.13 0-.245-.05-.115-.045-.2-.13-.08-.085-.13-.195-.045-.115-.045-.25z"/><path d="m13.42-3.58q0 .94-.205 1.63-.2.685-.55 1.135-.35.45-.83.67-.475.22-1.02.22-.55 0-1.0249999-.22-.47-.22-.82-.67-.35-.45-.55-1.135-.2-.69-.2-1.63 0-.94.2-1.63.2-.69.55-1.14.35-.455.82-.675.4749999-.22 1.0249999-.22.545 0 1.02.22.48.22.83.675.35.45.55 1.14.205.69.205 1.63zm-.925 0q0-.82-.14-1.375-.135-.56-.37-.9-.23-.34-.535-.485-.305-.15-.635-.15-.33 0-.635.15-.3049999.145-.5349999.485-.23.34-.37.9-.135.555-.135 1.375 0 .82.135 1.375.14.555.37.895.23.34.5349999.49.305.145.635.145.33 0 .635-.145.305-.15.535-.49.235-.34.37-.895.14-.555.14-1.375z"/><path d="m15.155-.68h1.54v-4.885q0-.22.015-.445l-1.28 1.095q-.05.04-.1.06-.05.015-.095.015-.075 0-.135-.03-.06-.035-.09-.08l-.28-.385 2.13-1.845h.725v6.5h1.41v.68h-3.84z"/></g></g></g><g clip-path="url(#e)"><g transform="translate(41 59)"><g transform="scale(1 -1)"><path d="m5.5-3.58q0 .94-.205 1.63-.2.685-.55 1.135-.35.45-.83.67-.475.22-1.02.22-.55 0-1.025-.22-.47-.22-.82-.67-.35-.45-.55-1.135-.2-.69-.2-1.63 0-.94.2-1.63.2-.69.55-1.14.35-.455.82-.675.475-.22 1.025-.22.545 0 1.02.22.48.22.83.675.35.45.55 1.14.205.69.205 1.63zm-.925 0q0-.82-.14-1.375-.135-.56-.37-.9-.23-.34-.535-.485-.305-.15-.635-.15-.33 0-.635.15-.305.145-.535.485-.23.34-.37.9-.135.555-.135 1.375 0 .82.135 1.375.14.555.37.895.23.34.535.49.305.145.635.145.33 0 .635-.145.305-.15.535-.49.235-.34.37-.895.14-.555.14-1.375z"/><path d="m6.2400002-.55q0-.13.045-.245.05-.115.13-.2.085-.085.2-.135.115-.05.245-.05.13 0 .245.05.115.05.2.135.085.085.13.2.05.115.05.245 0 .135-.05.25-.045.11-.13.195-.085.085-.2.13-.115.05-.245.05-.13 0-.245-.05-.115-.045-.2-.13-.08-.085-.13-.195-.045-.115-.045-.25z"/><path d="m9.3550001-.68h1.5399999v-4.885q0-.22.015-.445l-1.2799999 1.095q-.05.04-.1.06-.05.015-.095.015-.075 0-.135-.03-.06-.035-.09-.08l-.28-.385 2.1299999-1.845h.725v6.5h1.41v.68h-3.8399999z"/></g></g></g><g clip-path="url(#f)"><g transform="translate(49 83)"><g transform="scale(1 -1)"><path d="m1.435-.68h1.54v-4.885q0-.22.015-.445l-1.28 1.095q-.05.04-.1.06-.05.015-.095.015-.075 0-.135-.03-.06-.035-.09-.08l-.28-.385 2.13-1.845h.725v6.5h1.41v.68h-3.84z"/></g></g></g><g clip-path="url(#g)"><g transform="translate(43 108)"><g transform="scale(1 -1)"><path d="m1.435-.68h1.54v-4.885q0-.22.015-.445l-1.28 1.095q-.05.04-.1.06-.05.015-.095.015-.075 0-.135-.03-.06-.035-.09-.08l-.28-.385 2.13-1.845h.725v6.5h1.41v.68h-3.84z"/><path d="m11.3-3.58q0 .94-.205 1.63-.2.685-.55 1.135-.35.45-.8299998.67-.475.22-1.02.22-.55 0-1.025-.22-.47-.22-.82-.67-.35-.45-.55-1.135-.2-.69-.2-1.63 0-.94.2-1.63.2-.69.55-1.14.35-.455.82-.675.475-.22 1.025-.22.545 0 1.02.22.4799998.22.8299998.675.35.45.55 1.14.205.69.205 1.63zm-.925 0q0-.82-.14-1.375-.135-.56-.3699998-.9-.23-.34-.535-.485-.305-.15-.635-.15-.33 0-.635.15-.305.145-.535.485-.23.34-.37.9-.135.555-.135 1.375 0 .82.135 1.375.14.555.37.895.23.34.535.49.305.145.635.145.33 0 .635-.145.305-.15.535-.49.2349998-.34.3699998-.895.14-.555.14-1.375z"/></g></g></g><g clip-path="url(#h)"><g transform="translate(37 133)"><g transform="scale(1 -1)"><path d="m1.435-.68h1.54v-4.885q0-.22.015-.445l-1.28 1.095q-.05.04-.1.06-.05.015-.095.015-.075 0-.135-.03-.06-.035-.09-.08l-.28-.385 2.13-1.845h.725v6.5h1.41v.68h-3.84z"/><path d="m11.3-3.58q0 .94-.205 1.63-.2.685-.55 1.135-.35.45-.8299998.67-.475.22-1.02.22-.55 0-1.025-.22-.47-.22-.82-.67-.35-.45-.55-1.135-.2-.69-.2-1.63 0-.94.2-1.63.2-.69.55-1.14.35-.455.82-.675.475-.22 1.025-.22.545 0 1.02.22.4799998.22.8299998.675.35.45.55 1.14.205.69.205 1.63zm-.925 0q0-.82-.14-1.375-.135-.56-.3699998-.9-.23-.34-.535-.485-.305-.15-.635-.15-.33 0-.635.15-.305.145-.535.485-.23.34-.37.9-.135.555-.135 1.375 0 .82.135 1.375.14.555.37.895.23.34.535.49.305.145.635.145.33 0 .635-.145.305-.15.535-.49.2349998-.34.3699998-.895.14-.555.14-1.375z"/><path d="m17.1-3.58q0 .94-.205 1.63-.2.685-.55 1.135-.35.45-.83.67-.475.22-1.02.22-.55 0-1.025-.22-.47-.22-.82-.67-.35-.45-.55-1.135-.2-.69-.2-1.63 0-.94.2-1.63.2-.69.55-1.14.35-.455.82-.675.475-.22 1.025-.22.545 0 1.02.22.48.22.83.675.35.45.55 1.14.205.69.205 1.63zm-.925 0q0-.82-.14-1.375-.135-.56-.37-.9-.23-.34-.535-.485-.305-.15-.635-.15-.33 0-.635.15-.305.145-.535.485-.23.34-.37.9-.135.555-.135 1.375 0 .82.135 1.375.14.555.37.895.23.34.535.49.305.145.635.145.33 0 .635-.145.305-.15.535-.49.235-.34.37-.895.14-.555.14-1.375z"/></g></g></g><g clip-path="url(#i)"><g transform="translate(32 157)"><g transform="scale(1 -1)"><path d="m1.435-.68h1.54v-4.885q0-.22.015-.445l-1.28 1.095q-.05.04-.1.06-.05.015-.095.015-.075 0-.135-.03-.06-.035-.09-.08l-.28-.385 2.13-1.845h.725v6.5h1.41v.68h-3.84z"/><path d="m11.3-3.58q0 .94-.205 1.63-.2.685-.55 1.135-.35.45-.8299998.67-.475.22-1.02.22-.55 0-1.025-.22-.47-.22-.82-.67-.35-.45-.55-1.135-.2-.69-.2-1.63 0-.94.2-1.63.2-.69.55-1.14.35-.455.82-.675.475-.22 1.025-.22.545 0 1.02.22.4799998.22.8299998.675.35.45.55 1.14.205.69.205 1.63zm-.925 0q0-.82-.14-1.375-.135-.56-.3699998-.9-.23-.34-.535-.485-.305-.15-.635-.15-.33 0-.635.15-.305.145-.535.485-.23.34-.37.9-.135.555-.135 1.375 0 .82.135 1.375.14.555.37.895.23.34.535.49.305.145.635.145.33 0 .635-.145.305-.15.535-.49.2349998-.34.3699998-.895.14-.555.14-1.375z"/><path d="m17.1-3.58q0 .94-.205 1.63-.2.685-.55 1.135-.35.45-.83.67-.475.22-1.02.22-.55 0-1.025-.22-.47-.22-.82-.67-.35-.45-.55-1.135-.2-.69-.2-1.63 0-.94.2-1.63.2-.69.55-1.14.35-.455.82-.675.475-.22 1.025-.22.545 0 1.02.22.48.22.83.675.35.45.55 1.14.205.69.205 1.63zm-.925 0q0-.82-.14-1.375-.135-.56-.37-.9-.23-.34-.535-.485-.305-.15-.635-.15-.33 0-.635.15-.305.145-.535.485-.23.34-.37.9-.135.555-.135 1.375 0 .82.135 1.375.14.555.37.895.23.34.535.49.305.145.635.145.33 0 .635-.145.305-.15.535-.49.235-.34.37-.895.14-.555.14-1.375z"/><path d="m22.9-3.58q0 .94-.205 1.63-.2.685-.55 1.135-.35.45-.83.67-.475.22-1.02.22-.55 0-1.025-.22-.47-.22-.82-.67-.35-.45-.55-1.135-.2-.69-.2-1.63 0-.94.2-1.63.2-.69.55-1.14.35-.455.82-.675.475-.22 1.025-.22.545 0 1.02.22.48.22.83.675.35.45.55 1.14.205.69.205 1.63zm-.925 0q0-.82-.14-1.375-.135-.56-.37-.9-.23-.34-.535-.485-.305-.15-.635-.15-.33 0-.635.15-.305.145-.535.485-.23.34-.37.9-.135.555-.135 1.375 0 .82.135 1.375.14.555.37.895.23.34.535.49.305.145.635.145.33 0 .635-.145.305-.15.535-.49.235-.34.37-.895.14-.555.14-1.375z"/></g></g></g><g clip-path="url(#j)"><g transform="translate(26 182)"><g transform="scale(1 -1)"><path d="m1.435-.68h1.54v-4.885q0-.22.015-.445l-1.28 1.095q-.05.04-.1.06-.05.015-.095.015-.075 0-.135-.03-.06-.035-.09-.08l-.28-.385 2.13-1.845h.725v6.5h1.41v.68h-3.84z"/><path d="m11.3-3.58q0 .94-.205 1.63-.2.685-.55 1.135-.35.45-.8299998.67-.475.22-1.02.22-.55 0-1.025-.22-.47-.22-.82-.67-.35-.45-.55-1.135-.2-.69-.2-1.63 0-.94.2-1.63.2-.69.55-1.14.35-.455.82-.675.475-.22 1.025-.22.545 0 1.02.22.4799998.22.8299998.675.35.45.55 1.14.205.69.205 1.63zm-.925 0q0-.82-.14-1.375-.135-.56-.3699998-.9-.23-.34-.535-.485-.305-.15-.635-.15-.33 0-.635.15-.305.145-.535.485-.23.34-.37.9-.135.555-.135 1.375 0 .82.135 1.375.14.555.37.895.23.34.535.49.305.145.635.145.33 0 .635-.145.305-.15.535-.49.2349998-.34.3699998-.895.14-.555.14-1.375z"/><path d="m17.1-3.58q0 .94-.205 1.63-.2.685-.55 1.135-.35.45-.83.67-.475.22-1.02.22-.55 0-1.025-.22-.47-.22-.82-.67-.35-.45-.55-1.135-.2-.69-.2-1.63 0-.94.2-1.63.2-.69.55-1.14.35-.455.82-.675.475-.22 1.025-.22.545 0 1.02.22.48.22.83.675.35.45.55 1.14.205.69.205 1.63zm-.925 0q0-.82-.14-1.375-.135-.56-.37-.9-.23-.34-.535-.485-.305-.15-.635-.15-.33 0-.635.15-.305.145-.535.485-.23.34-.37.9-.135.555-.135 1.375 0 .82.135 1.375.14.555.37.895.23.34.535.49.305.145.635.145.33 0 .635-.145.305-.15.535-.49.235-.34.37-.895.14-.555.14-1.375z"/><path d="m22.9-3.58q0 .94-.205 1.63-.2.685-.55 1.135-.35.45-.83.67-.475.22-1.02.22-.55 0-1.025-.22-.47-.22-.82-.67-.35-.45-.55-1.135-.2-.69-.2-1.63 0-.94.2-1.63.2-.69.55-1.14.35-.455.82-.675.475-.22 1.025-.22.545 0 1.02.22.48.22.83.675.35.45.55 1.14.205.69.205 1.63zm-.925 0q0-.82-.14-1.375-.135-.56-.37-.9-.23-.34-.535-.485-.305-.15-.635-.15-.33 0-.635.15-.305.145-.535.485-.23.34-.37.9-.135.555-.135 1.375 0 .82.135 1.375.14.555.37.895.23.34.535.49.305.145.635.145.33 0 .635-.145.305-.15.535-.49.235-.34.37-.895.14-.555.14-1.375z"/><path d="m28.700001-3.58q0 .94-.205 1.63-.2.685-.55 1.135-.35.45-.83.67-.475.22-1.02.22-.55 0-1.025-.22-.47-.22-.82-.67-.35-.45-.55-1.135-.2-.69-.2-1.63 0-.94.2-1.63.2-.69.55-1.14.35-.455.82-.675.475-.22 1.025-.22.545 0 1.02.22.48.22.83.675.35.45.55 1.14.205.69.205 1.63zm-.925 0q0-.82-.14-1.375-.135-.56-.37-.9-.23-.34-.535-.485-.305-.15-.635-.15-.33 0-.635.15-.305.145-.535.485-.23.34-.37.9-.135.555-.135 1.375 0 .82.135 1.375.14.555.37.895.23.34.535.49.305.145.635.145.33 0 .635-.145.305-.15.535-.49.235-.34.37-.895.14-.555.14-1.375z"/></g></g></g><g clip-path="url(#k)"><g transform="translate(20 207)"><g transform="scale(1 -1)"><path d="m1.435-.68h1.54v-4.885q0-.22.015-.445l-1.28 1.095q-.05.04-.1.06-.05.015-.095.015-.075 0-.135-.03-.06-.035-.09-.08l-.28-.385 2.13-1.845h.725v6.5h1.41v.68h-3.84z"/><path d="m11.3-3.58q0 .94-.205 1.63-.2.685-.55 1.135-.35.45-.8299998.67-.475.22-1.02.22-.55 0-1.025-.22-.47-.22-.82-.67-.35-.45-.55-1.135-.2-.69-.2-1.63 0-.94.2-1.63.2-.69.55-1.14.35-.455.82-.675.475-.22 1.025-.22.545 0 1.02.22.4799998.22.8299998.675.35.45.55 1.14.205.69.205 1.63zm-.925 0q0-.82-.14-1.375-.135-.56-.3699998-.9-.23-.34-.535-.485-.305-.15-.635-.15-.33 0-.635.15-.305.145-.535.485-.23.34-.37.9-.135.555-.135 1.375 0 .82.135 1.375.14.555.37.895.23.34.535.49.305.145.635.145.33 0 .635-.145.305-.15.535-.49.2349998-.34.3699998-.895.14-.555.14-1.375z"/><path d="m17.1-3.58q0 .94-.205 1.63-.2.685-.55 1.135-.35.45-.83.67-.475.22-1.02.22-.55 0-1.025-.22-.47-.22-.82-.67-.35-.45-.55-1.135-.2-.69-.2-1.63 0-.94.2-1.63.2-.69.55-1.14.35-.455.82-.675.475-.22 1.025-.22.545 0 1.02.22.48.22.83.675.35.45.55 1.14.205.69.205 1.63zm-.925 0q0-.82-.14-1.375-.135-.56-.37-.9-.23-.34-.535-.485-.305-.15-.635-.15-.33 0-.635.15-.305.145-.535.485-.23.34-.37.9-.135.555-.135 1.375 0 .82.135 1.375.14.555.37.895.23.34.535.49.305.145.635.145.33 0 .635-.145.305-.15.535-.49.235-.34.37-.895.14-.555.14-1.375z"/><path d="m22.9-3.58q0 .94-.205 1.63-.2.685-.55 1.135-.35.45-.83.67-.475.22-1.02.22-.55 0-1.025-.22-.47-.22-.82-.67-.35-.45-.55-1.135-.2-.69-.2-1.63 0-.94.2-1.63.2-.69.55-1.14.35-.455.82-.675.475-.22 1.025-.22.545 0 1.02.22.48.22.83.675.35.45.55 1.14.205.69.205 1.63zm-.925 0q0-.82-.14-1.375-.135-.56-.37-.9-.23-.34-.535-.485-.305-.15-.635-.15-.33 0-.635.15-.305.145-.535.485-.23.34-.37.9-.135.555-.135 1.375 0 .82.135 1.375.14.555.37.895.23.34.535.49.305.145.635.145.33 0 .635-.145.305-.15.535-.49.235-.34.37-.895.14-.555.14-1.375z"/><path d="m28.700001-3.58q0 .94-.205 1.63-.2.685-.55 1.135-.35.45-.83.67-.475.22-1.02.22-.55 0-1.025-.22-.47-.22-.82-.67-.35-.45-.55-1.135-.2-.69-.2-1.63 0-.94.2-1.63.2-.69.55-1.14.35-.455.82-.675.475-.22 1.025-.22.545 0 1.02.22.48.22.83.675.35.45.55 1.14.205.69.205 1.63zm-.925 0q0-.82-.14-1.375-.135-.56-.37-.9-.23-.34-.535-.485-.305-.15-.635-.15-.33 0-.635.15-.305.145-.535.485-.23.34-.37.9-.135.555-.135 1.375 0 .82.135 1.375.14.555.37.895.23.34.535.49.305.145.635.145.33 0 .635-.145.305-.15.535-.49.235-.34.37-.895.14-.555.14-1.375z"/><path d="m34.5-3.58q0 .94-.205 1.63-.2.685-.55 1.135-.35.45-.83.67-.475.22-1.02.22-.55 0-1.025-.22-.47-.22-.82-.67-.35-.45-.55-1.135-.2-.69-.2-1.63 0-.94.2-1.63.2-.69.55-1.14.35-.455.82-.675.475-.22 1.025-.22.545 0 1.02.22.48.22.83.675.35.45.55 1.14.205.69.205 1.63zm-.925 0q0-.82-.14-1.375-.135-.56-.37-.9-.23-.34-.535-.485-.305-.15-.635-.15-.33 0-.635.15-.305.145-.535.485-.23.34-.37.9-.135.555-.135 1.375 0 .82.135 1.375.14.555.37.895.23.34.535.49.305.145.635.145.33 0 .635-.145.305-.15.535-.49.235-.34.37-.895.14-.555.14-1.375z"/></g></g></g><g clip-path="url(#l)" fill="none" stroke="#000" stroke-linecap="square"><g transform="matrix(1 0 0 -1 0 309.85)"><path d="m68.5 271.35h355m-355-2.5v5m178-5v5m177-5v5"/></g></g><g clip-path="url(#m)"><g transform="translate(189 2)"><g transform="scale(1 -1)"><path d="m1.507-7.8815q.143 0 .209.0385.0715.033.1595.143l4.565 5.94q-.0165-.143-.022-.275-.0055-.1375-.0055-.264v-5.5825h.935v7.8815h-.539q-.1265 0-.2145-.044-.0825-.044-.165-.1485l-4.5595-5.9345q.011.1375.0165.2695.0055.132.0055.242v5.6155h-.935v-7.8815z"/><path d="m9.966-5.5715v3.553q0 .6325.2915.979.2915.3465.88.3465.429 0 .8085-.2035.3795-.2035.6985-.5665v-4.1085h.979v5.5715h-.583q-.209 0-.264-.2035l-.077-.5995q-.363.4015-.814.649-.451.242-1.034.242-.4565 0-.8085-.1485-.3465-.154-.583-.429-.2365-.275-.3575-.6655-.1155-.3905-.1155-.8635v-3.553z"/><path d="m15.235 0v-5.5715h.583q.209 0 .264.2035l.0715.572q.308-.3795.6875-.6215.385-.242.891-.242.5665 0 .913.3135.352.3135.506.847.1155-.3025.3025-.5225.1925-.22.429-.363.2365-.143.5005-.209.2695-.066.5445-.066.44 0 .781.143.3465.1375.583.407.242.2695.3685.6655.1265.3905.1265.8965v3.5475h-.979v-3.5475q0-.6545-.286-.99-.286-.341-.8305-.341-.242 0-.462.088-.2145.0825-.3795.2475-.165.165-.264.418-.0935.2475-.0935.5775v3.5475h-.979v-3.5475q0-.671-.2695-1.001-.2695-.33-.7865-.33-.363 0-.6765.198-.308.1925-.5665.528v4.1525z"/><path d="m24.298999 0v-8.1015h.9845v3.333q.3465-.4015.792-.6435.451-.2475 1.0285-.2475.484 0 .8745.1815.3905.1815.6655.5445.275.3575.4235.891.1485.528.1485 1.221 0 .616-.165 1.1495-.165.528-.4785.9185-.308.385-.759.6105-.4455.22-1.0065.22-.539 0-.9185-.209-.374-.209-.6545-.583l-.0495.506q-.044.209-.253.209zm2.486-4.8785q-.4785 0-.8415.22-.3575.22-.66.6215v2.695q.264.363.583.5115.3245.1485.7205.1485.781 0 1.199-.5555.418-.5555.418-1.584 0-.5445-.099-.935-.0935-.3905-.275-.638-.1815-.253-.4455-.3685-.264-.1155-.5995-.1155z"/><path d="m32.6205-5.6595q.5005 0 .924.1705.4235.165.7315.484.308.3135.4785.781.176.462.176 1.056 0 .231-.0495.308-.0495.077-.187.077h-3.707q.011.528.143.9185.132.3905.363.6545.231.2585.55.3905.319.1265.715.1265.3685 0 .6325-.0825.2695-.088.462-.187.1925-.099.319-.1815.132-.088.2255-.088.121 0 .187.0935l.275.3575q-.1815.22-.4345.385-.253.1595-.5445.264-.286.1045-.594.154-.308.055-.6105.055-.5775 0-1.067-.1925-.484-.198-.8415-.572-.352-.3795-.55-.935-.198-.5555-.198-1.276 0-.583.176-1.089.1815-.506.517-.8745.3355-.374.8195-.583.484-.2145 1.089-.2145zm.022.7205q-.7095 0-1.1165.4125-.407.407-.506 1.133h3.0305q0-.341-.0935-.6215-.0935-.286-.275-.4895-.1815-.209-.4455-.319-.2585-.1155-.594-.1155z"/><path d="m36.178999 0v-5.5715h.561q.1595 0 .22.0605.0605.0605.0825.209l.066.869q.286-.583.704-.9075.4235-.33.99-.33.231 0 .418.055.187.0495.3465.143l-.1265.7315q-.0385.1375-.1705.1375-.077 0-.2365-.0495-.1595-.055-.4455-.055-.5115 0-.858.297-.341.297-.572.8635v3.5475z"/><path d="m44.989999-5.6595q.6105 0 1.1.2035.495.2035.836.5775.3465.374.528.9075.187.528.187 1.1825 0 .66-.187 1.188-.1815.528-.528.902-.341.374-.836.5775-.4895.198-1.1.198-.6105 0-1.1055-.198-.4895-.2035-.836-.5775-.3465-.374-.5335-.902-.187-.528-.187-1.188 0-.6545.187-1.1825.187-.5335.5335-.9075.3465-.374.836-.5775.495-.2035 1.1055-.2035zm0 4.972q.825 0 1.232-.55.407-.5555.407-1.5455 0-.9955-.407-1.551-.407-.5555-1.232-.5555-.418 0-.726.143-.308.143-.517.4125-.2035.2695-.308.6655-.099.3905-.099.8855 0 .495.099.8855.1045.3905.308.66.209.264.517.407.308.143.726.143z"/><path d="m49.071 0v-4.7355l-.616-.0715q-.1155-.0275-.1925-.0825-.0715-.0605-.0715-.1705v-.4015h.88v-.539q0-.4785.132-.847.1375-.374.385-.627.253-.2585.605-.3905.352-.132.792-.132.374 0 .693.11l-.022.4895q-.0055.11-.0935.132-.088.022-.2475.022h-.1705q-.253 0-.462.066-.2035.066-.352.2145-.1485.1485-.231.3905-.077.242-.077.5995v.5115h1.6115v.7095h-1.5785v4.752z"/><path d="m54.680998 1.8865v-7.458h.583q.209 0 .264.2035l.0825.66q.3575-.4345.814-.6985.462-.264 1.0615-.264.4785 0 .869.187.3905.1815.6655.5445.275.3575.4235.891.1485.5335.1485 1.2265 0 .616-.165 1.1495-.165.528-.473.9185-.308.385-.759.6105-.4455.22-1.0065.22-.517 0-.8855-.1705-.363-.1705-.6435-.484v2.464zm2.4805-6.765q-.4785 0-.8415.22-.3575.22-.66.6215v2.695q.2695.363.5885.5115.3245.1485.7205.1485.7755 0 1.1935-.5555.418-.5555.418-1.584 0-.5445-.099-.935-.0935-.3905-.275-.638-.1815-.253-.4455-.3685-.264-.1155-.5995-.1155z"/><path d="m64.845001 0h-.4345q-.143 0-.231-.044-.088-.044-.1155-.187l-.11-.517q-.22.198-.429.3575-.209.154-.44.264-.231.1045-.495.1595-.2585.055-.5775.055-.3245 0-.6105-.088-.2805-.0935-.4895-.275-.209-.1815-.3355-.4565-.121-.2805-.121-.66 0-.33.1815-.6325.1815-.308.583-.5445.407-.2365 1.0615-.385.6545-.154 1.6005-.176v-.4345q0-.649-.2805-.979-.275-.3355-.8195-.3355-.3575 0-.605.0935-.242.088-.4235.2035-.176.11-.308.2035-.1265.088-.253.088-.099 0-.176-.0495-.0715-.055-.1155-.132l-.176-.3135q.462-.4455.9955-.6655.5335-.22 1.1825-.22.4675 0 .8305.154.363.154.6105.429.2475.275.374.6655.1265.3905.1265.858zm-2.541-.5995q.2585 0 .473-.0495.2145-.055.4015-.1485.1925-.099.363-.2365.176-.1375.341-.3135v-1.1605q-.6765.022-1.1495.11-.473.0825-.77.22-.297.1375-.4345.3245-.132.187-.132.418 0 .22.0715.3795.0715.1595.1925.264.121.099.286.1485.165.044.3575.044z"/><path d="m66.33 0v-5.5715h.561q.1595 0 .22.0605.0605.0605.0825.209l.066.869q.286-.583.704-.9075.4235-.33.99-.33.231 0 .418.055.187.0495.3465.143l-.1265.7315q-.0385.1375-.1705.1375-.077 0-.2365-.0495-.1595-.055-.4455-.055-.5115 0-.858.297-.341.297-.572.8635v3.5475z"/><path d="m72.968499-5.6595q.5005 0 .924.1705.4235.165.7315.484.308.3135.4785.781.176.462.176 1.056 0 .231-.0495.308-.0495.077-.187.077h-3.707q.011.528.143.9185.132.3905.363.6545.231.2585.55.3905.319.1265.715.1265.3685 0 .6325-.0825.2695-.088.462-.187.1925-.099.319-.1815.132-.088.2255-.088.121 0 .187.0935l.275.3575q-.1815.22-.4345.385-.253.1595-.5445.264-.286.1045-.594.154-.308.055-.6105.055-.5775 0-1.067-.1925-.484-.198-.8415-.572-.352-.3795-.55-.935-.198-.5555-.198-1.276 0-.583.176-1.089.1815-.506.517-.8745.3355-.374.8195-.583.484-.2145 1.089-.2145zm.022.7205q-.7095 0-1.1165.4125-.407.407-.506 1.133h3.0305q0-.341-.0935-.6215-.0935-.286-.275-.4895-.1815-.209-.4455-.319-.2585-.1155-.594-.1155z"/><path d="m76.526999 0v-5.5715h.583q.209 0 .264.2035l.077.605q.363-.4015.8085-.649.451-.2475 1.0395-.2475.4565 0 .803.154.352.1485.583.429.2365.275.3575.6655.121.3905.121.8635v3.5475h-.979v-3.5475q0-.6325-.2915-.979-.286-.352-.88-.352-.4345 0-.814.209-.374.209-.693.5665v4.103z"/><path d="m84.331496.088q-.66 0-1.0175-.3685-.352-.3685-.352-1.0615v-3.41h-.671q-.088 0-.1485-.0495-.0605-.055-.0605-.165v-.3905l.913-.1155.2255-1.7215q.011-.0825.0715-.132.0605-.055.154-.055h.495v1.9195h1.595v.7095h-1.595v3.344q0 .352.1705.5225.1705.1705.44.1705.154 0 .264-.0385.1155-.044.198-.0935.0825-.0495.1375-.088.0605-.044.1045-.044.077 0 .1375.0935l.286.4675q-.253.2365-.6105.374-.3575.132-.737.132z"/><path d="m89.936001-4.653q-.066.121-.2035.121-.0825 0-.187-.0605-.1045-.0605-.2585-.132-.1485-.077-.3575-.1375-.209-.066-.495-.066-.2475 0-.4455.066-.198.0605-.341.1705-.1375.11-.2145.2585-.0715.143-.0715.3135 0 .2145.121.3575.1265.143.33.2475.2035.1045.462.187.2585.077.528.1705.275.088.5335.198.2585.11.462.275.2035.165.3245.407.1265.2365.1265.572 0 .385-.1375.715-.1375.3245-.407.5665-.2695.2365-.66.374-.3905.1375-.902.1375-.583 0-1.056-.187-.473-.1925-.803-.4895l.231-.374q.044-.0715.1045-.11.0605-.0385.1595-.0385.099 0 .209.077.11.077.264.1705.1595.0935.3795.1705.2255.077.561.077.286 0 .5005-.0715.2145-.077.3575-.2035.143-.1265.209-.2915.0715-.165.0715-.352 0-.231-.1265-.3795-.121-.154-.3245-.2585-.2035-.11-.4675-.187-.2585-.0825-.5335-.1705-.2695-.088-.5335-.198-.2585-.1155-.462-.286-.2035-.1705-.33-.418-.121-.253-.121-.6105 0-.319.132-.6105.132-.297.385-.517.253-.2255.6215-.3575.3685-.132.8415-.132.55 0 .9845.176.44.1705.759.473z"/><path d="m94.429496-3.4595q0 1.177.3025 2.288.3025 1.1055.8745 2.112.033.0605.044.1045.011.044.011.088 0 .077-.0385.1265-.0385.0495-.099.088l-.4345.264q-.4125-.6325-.704-1.254-.286-.6215-.4675-1.2485-.176-.627-.2585-1.2595-.0825-.638-.0825-1.309 0-.6655.0825-1.3035.0825-.638.2585-1.2595.1815-.627.4675-1.2485.2915-.6215.704-1.2595l.4345.2695q.0605.0385.099.088.0385.0495.0385.1265 0 .0825-.055.187-.5775 1.001-.88 2.112-.297 1.111-.297 2.288z"/><path d="m98.031999-8.1015v8.1015h-.979v-8.1015z"/><path d="m102.014-5.6595q.6105 0 1.1.2035.495.2035.836.5775.3465.374.528.9075.187.528.187 1.1825 0 .66-.187 1.188-.1815.528-.528.902-.341.374-.836.5775-.4895.198-1.1.198-.6105 0-1.1055-.198-.4895-.2035-.836-.5775-.346499-.374-.533499-.902-.187-.528-.187-1.188 0-.6545.187-1.1825.187-.5335.533499-.9075.3465-.374.836-.5775.495-.2035 1.1055-.2035zm0 4.972q.825 0 1.232-.55.407-.5555.407-1.5455 0-.9955-.407-1.551-.407-.5555-1.232-.5555-.418 0-.726.143-.308.143-.517.4125-.2035.2695-.308.6655-.099.3905-.099.8855 0 .495.099.8855.1045.3905.308.66.209.264.517.407.308.143.726.143z"/><path d="m107.7505-5.665q.363 0 .6765.0825.319.077.5775.231h1.5125v.363q0 .1815-.231.231l-.6325.088q.187.3575.187.7975 0 .407-.1595.7425-.154.33-.4345.5665-.275.2365-.66.363-.3795.1265-.836.1265-.3905 0-.737-.0935-.176.11-.2695.2365-.088.1265-.088.2475 0 .198.1595.3025.1595.099.4235.143.264.044.5995.055.3355.011.682.0385.352.022.6875.0825.3355.0605.5995.198.264.1375.4235.3795.1595.242.1595.627 0 .3575-.1815.693-.176.3355-.5115.594-.3355.264-.8195.418-.484.1595-1.0945.1595-.6105 0-1.0725-.121-.4565-.121-.759-.3245-.3025-.2035-.4565-.473-.1485-.264-.1485-.5555 0-.4125.2585-.6985.264-.2915.7205-.462-.2365-.11-.3795-.2915-.1375-.187-.1375-.495 0-.121.044-.2475.044-.132.132-.2585.0935-.1265.2255-.242.132-.1155.308-.2035-.4125-.231-.649-.6105-.231-.385-.231-.8965 0-.407.154-.737.1595-.3355.44-.5665.2805-.2365.6655-.363.3905-.1265.8525-.1265zm1.738 5.9675q0-.209-.1155-.3355-.1155-.1265-.3135-.1925-.198-.0715-.4565-.1045-.2585-.033-.5445-.044-.286-.0165-.583-.033-.297-.0165-.5665-.0605-.3135.1485-.5115.363-.1925.2145-.1925.5115 0 .187.0935.3465.099.165.297.2805.198.121.495.187.3025.0715.7095.0715.396 0 .7095-.0715.3135-.0715.528-.2035.22-.132.3355-.3135.1155-.1815.1155-.4015zm-1.738-3.025q.297 0 .5225-.0825.231-.0825.385-.231.154-.1485.231-.352.077-.209.077-.4565 0-.5115-.3135-.814-.308-.3025-.902-.3025-.5885 0-.902.3025-.308.3025-.308.814 0 .2475.077.4565.0825.2035.2365.352.154.1485.3795.231.2255.0825.517.0825z"/><path d="m112.332-3.4595q0-1.177-.3025-2.288-.297-1.111-.8745-2.112-.055-.1045-.055-.187 0-.077.0385-.1265.0385-.0495.099-.088l.4345-.2695q.4125.638.6985 1.2595.2915.6215.4675 1.2485.1815.6215.264 1.2595.0825.638.0825 1.3035 0 .671-.0825 1.309-.0825.6325-.264 1.2595-.176.627-.4675 1.2485-.286.6215-.6985 1.254l-.4345-.264q-.0605-.0385-.099-.088-.0385-.0495-.0385-.1265 0-.044.011-.088.011-.044.044-.1045.572-1.0065.8745-2.112.3025-1.111.3025-2.288z"/></g></g></g><g clip-path="url(#n)"><g transform="translate(66 22)"><g transform="scale(1 -1)"><path d="m1.435-.68h1.54v-4.885q0-.22.015-.445l-1.28 1.095q-.05.04-.1.06-.05.015-.095.015-.075 0-.135-.03-.06-.035-.09-.08l-.28-.385 2.13-1.845h.725v6.5h1.41v.68h-3.84z"/></g></g></g><g clip-path="url(#o)"><g transform="translate(241 22)"><g transform="scale(1 -1)"><path d="m1.435-.68h1.54v-4.885q0-.22.015-.445l-1.28 1.095q-.05.04-.1.06-.05.015-.095.015-.075 0-.135-.03-.06-.035-.09-.08l-.28-.385 2.13-1.845h.725v6.5h1.41v.68h-3.84z"/><path d="m11.3-3.58q0 .94-.205 1.63-.2.685-.55 1.135-.35.45-.8299998.67-.475.22-1.02.22-.55 0-1.025-.22-.47-.22-.82-.67-.35-.45-.55-1.135-.2-.69-.2-1.63 0-.94.2-1.63.2-.69.55-1.14.35-.455.82-.675.475-.22 1.025-.22.545 0 1.02.22.4799998.22.8299998.675.35.45.55 1.14.205.69.205 1.63zm-.925 0q0-.82-.14-1.375-.135-.56-.3699998-.9-.23-.34-.535-.485-.305-.15-.635-.15-.33 0-.635.15-.305.145-.535.485-.23.34-.37.9-.135.555-.135 1.375 0 .82.135 1.375.14.555.37.895.23.34.535.49.305.145.635.145.33 0 .635-.145.305-.15.535-.49.2349998-.34.3699998-.895.14-.555.14-1.375z"/></g></g></g><g clip-path="url(#p)"><g transform="translate(415 22)"><g transform="scale(1 -1)"><path d="m1.435-.68h1.54v-4.885q0-.22.015-.445l-1.28 1.095q-.05.04-.1.06-.05.015-.095.015-.075 0-.135-.03-.06-.035-.09-.08l-.28-.385 2.13-1.845h.725v6.5h1.41v.68h-3.84z"/><path d="m11.3-3.58q0 .94-.205 1.63-.2.685-.55 1.135-.35.45-.8299998.67-.475.22-1.02.22-.55 0-1.025-.22-.47-.22-.82-.67-.35-.45-.55-1.135-.2-.69-.2-1.63 0-.94.2-1.63.2-.69.55-1.14.35-.455.82-.675.475-.22 1.025-.22.545 0 1.02.22.4799998.22.8299998.675.35.45.55 1.14.205.69.205 1.63zm-.925 0q0-.82-.14-1.375-.135-.56-.3699998-.9-.23-.34-.535-.485-.305-.15-.635-.15-.33 0-.635.15-.305.145-.535.485-.23.34-.37.9-.135.555-.135 1.375 0 .82.135 1.375.14.555.37.895.23.34.535.49.305.145.635.145.33 0 .635-.145.305-.15.535-.49.2349998-.34.3699998-.895.14-.555.14-1.375z"/><path d="m17.1-3.58q0 .94-.205 1.63-.2.685-.55 1.135-.35.45-.83.67-.475.22-1.02.22-.55 0-1.025-.22-.47-.22-.82-.67-.35-.45-.55-1.135-.2-.69-.2-1.63 0-.94.2-1.63.2-.69.55-1.14.35-.455.82-.675.475-.22 1.025-.22.545 0 1.02.22.48.22.83.675.35.45.55 1.14.205.69.205 1.63zm-.925 0q0-.82-.14-1.375-.135-.56-.37-.9-.23-.34-.535-.485-.305-.15-.635-.15-.33 0-.635.15-.305.145-.535.485-.23.34-.37.9-.135.555-.135 1.375 0 .82.135 1.375.14.555.37.895.23.34.535.49.305.145.635.145.33 0 .635-.145.305-.15.535-.49.235-.34.37-.895.14-.555.14-1.375z"/></g></g></g><g clip-path="url(#q)"><g/><g><g clip-path="url(#r)"><g/><g><g clip-path="url(#s)"><g clip-path="url(#t)"><path d="m118 206h8v-8h-8z"/></g></g></g><g><g clip-path="url(#u)"><g clip-path="url(#v)"><path d="m150 158h8v-8h-8z"/></g></g></g><g><g clip-path="url(#w)"><g clip-path="url(#x)"><path d="m172 153h8v-8h-8z"/></g></g></g><g><g clip-path="url(#y)"><g clip-path="url(#z)"><path d="m189 150h8v-8h-8z"/></g></g></g><g><g clip-path="url(#A)"><g clip-path="url(#B)"><path d="m203 150h8v-8h-8z"/></g></g></g><g><g clip-path="url(#C)"><g clip-path="url(#D)"><path d="m215 138h8v-8h-8z"/></g></g></g><g><g clip-path="url(#E)"><g clip-path="url(#F)"><path d="m225 134h8v-8h-8z"/></g></g></g><g><g clip-path="url(#G)"><g clip-path="url(#H)"><path d="m234 131h8v-8h-8z"/></g></g></g><g><g clip-path="url(#I)"><g clip-path="url(#J)"><path d="m242 125h8v-8h-8z"/></g></g></g><g><g clip-path="url(#K)"><g clip-path="url(#L)"><path d="m250 125h8v-8h-8z"/></g></g></g><g><g clip-path="url(#M)"><g clip-path="url(#N)"><path d="m256 118h8v-8h-8z"/></g></g></g><g><g clip-path="url(#O)"><g clip-path="url(#P)"><path d="m263 106h8v-8h-8z"/></g></g></g><g><g clip-path="url(#Q)"><g clip-path="url(#R)"><path d="m268 99h8v-8h-8z"/></g></g></g><g><g clip-path="url(#S)"><g clip-path="url(#T)"><path d="m288 91h8v-8h-8z"/></g></g></g><g><g clip-path="url(#U)"><g clip-path="url(#V)"><path d="m292 91h8v-8h-8z"/></g></g></g><g><g clip-path="url(#W)"><g clip-path="url(#X)"><path d="m296 91h8v-8h-8z"/></g></g></g><g><g clip-path="url(#Y)"><g clip-path="url(#Z)"><path d="m300 91h8v-8h-8z"/></g></g></g><g><g clip-path="url(#aa)"><g clip-path="url(#ab)"><path d="m310 91h8v-8h-8z"/></g></g></g><g><g clip-path="url(#ac)"><g clip-path="url(#ad)"><path d="m319 91h8v-8h-8z"/></g></g></g><g><g clip-path="url(#ae)"><g clip-path="url(#af)"><path d="m327 91h8v-8h-8z"/></g></g></g><g><g clip-path="url(#ag)"><g clip-path="url(#ah)"><path d="m388 91h8v-8h-8z"/></g></g></g></g></g></g><g clip-path="url(#ai)" fill="none" stroke="#000"><g transform="matrix(1 0 0 -1 0 309.85)"><path d="m122.2525 132.915c89.8785 40.7015 179.7571 81.403 269.6356 122.1045"/></g></g><g clip-path="url(#aj)"><g transform="translate(69 274)"><g transform="scale(1 -1)"><path d="m2.4365 1.6445q-.0495.11-.1265.176-.0715.066-.2255.066h-.726l1.0175-2.211-2.299-5.247h.847q.1265 0 .198.066.0715.0605.1045.1375l1.4905 3.509q.0495.121.0825.242.0385.121.066.2475.0385-.1265.077-.2475.0385-.121.088-.2475l1.4465-3.5035q.033-.088.11-.143.0825-.0605.176-.0605h.781z"/><path d="m8.5800001-3.157h4.7244999v.7425h-4.7244999zm0-1.8425h4.7244999v.7425h-4.7244999z"/><path d="m21.224499-2.8435h1.1935v.561q0 .088-.055.1485-.0495.0605-.1595.0605h-.979v2.0735h-.8635v-2.0735h-3.4925q-.11 0-.1925-.0605-.077-.066-.099-.1595l-.099-.5005 3.8335-5.0875h.913zm-.8635-3.2505q0-.143.0055-.308.011-.165.0385-.341l-2.8655 3.8995h2.8215z"/><path d="m24.2165-.748h1.694v-5.3735q0-.242.0165-.4895l-1.408 1.2045q-.055.044-.11.066-.055.0165-.1045.0165-.0825 0-.1485-.033-.066-.0385-.099-.088l-.308-.4235 2.343-2.0295h.7975v7.15h1.551v.748h-4.224z"/><path d="m34.397-7.4525q0 .209-.132.3465-.132.132-.4455.132h-2.475l-.363 2.068q.616-.132 1.1385-.132.616 0 1.0835.1815.473.1815.792.5005.319.319.4785.7535.165.4345.165.946 0 .627-.22 1.133-.22.506-.605.869-.3795.3575-.8965.55-.517.1925-1.1165.1925-.3465 0-.6655-.0715-.319-.066-.594-.1815-.275-.1155-.5115-.264-.2365-.1485-.418-.3135l.297-.418q.099-.143.264-.143.1045 0 .242.088.143.0825.341.187.198.1045.462.1925.2695.0825.638.0825.4125 0 .7425-.132.33-.132.561-.374.2365-.2475.363-.5885.1265-.341.1265-.7645 0-.3685-.11-.6655-.1045-.297-.3245-.506-.2145-.209-.539-.3245-.3245-.1155-.759-.1155-.297 0-.616.0495-.319.0495-.66.1595l-.616-.1815.638-3.685h3.7345z"/><path d="m38.703499-7.9695q.5005 0 .935.1485.4345.1485.748.4345.319.2805.5005.6875.1815.407.1815.924 0 .44-.132.814-.132.374-.3575.7205-.2255.341-.5225.6655-.2915.319-.6215.6545l-2.0735 2.123q.22-.0605.4455-.0935.2255-.0385.4345-.0385h2.64q.1595 0 .253.0935.0935.0935.0935.242v.594h-5.258v-.3355q0-.1045.0385-.2145.044-.11.1375-.2035l2.5245-2.5355q.3135-.319.572-.6105.2585-.297.44-.594.187-.297.286-.5995.099-.308.099-.6545 0-.3465-.11-.605-.11-.264-.3025-.4345-.1925-.1705-.451-.253-.2585-.088-.5555-.088-.297 0-.55.088-.253.088-.451.2475-.1925.154-.33.3685-.132.2145-.187.473-.044.1595-.132.231-.088.0715-.231.0715-.0275 0-.0605 0-.0275-.0055-.066-.011l-.5115-.088q.077-.539.297-.9515.22-.418.5555-.6985.341-.2805.7755-.4235.44-.1485.946-.1485z"/><path d="m46.7445-2.8435h1.1935v.561q0 .088-.055.1485-.0495.0605-.1595.0605h-.979v2.0735h-.8635v-2.0735h-3.4925q-.11 0-.1925-.0605-.077-.066-.099-.1595l-.099-.5005 3.8335-5.0875h.913zm-.8635-3.2505q0-.143.0055-.308.011-.165.0385-.341l-2.8655 3.8995h2.8215z"/><path d="m50.264501-2.8545l-1.8755-2.717h.9405q.121 0 .176.0385.055.0385.099.11l1.364 2.09q.0495-.154.143-.308l1.199-1.76q.055-.077.11-.121.055-.0495.1375-.0495h.902l-1.8755 2.662 1.9525 2.9095h-.9405q-.121 0-.1925-.0605-.066-.066-.11-.143l-1.4025-2.1835q-.0385.1595-.1155.286l-1.298 1.8975q-.055.077-.121.143-.0605.0605-.1705.0605h-.8745z"/></g></g><g transform="translate(69 274)"><g transform="matrix(1 0 0 -1 53.702 3.618998)"><path d="m .3666667-2.4750002h1.8113335v.5536667h-1.8113335z"/><path d="m4.8180005-5.3130005q.3336667 0 .6160001.095333.2823333.095333.484.2713333.2053334.1760001.3190001.4253334.1136666.2493334.1136666.5536667 0 .2493334-.066.4473334-.062333.1943333-.1833333.3446667-.1173334.1466667-.286.2493333-.1686667.1026667-.3776667.1650001.5133333.1356666.77.4546667.2603334.319.2603334.7993334 0 .363-.1393334.65266669-.1356666.28966669-.374.49500005-.2383334.20166668-.5573334.31166669-.3153333.10633334-.6783334.10633334-.418 0-.715-.10266667-.2970001-.10633335-.5023334-.2896667-.2053334-.18333334-.3373334-.4326667-.132-.253-.2236667-.5463334l.2786667-.1173333q.077-.033.154-.033.073333 0 .1283334.033.058667.029333.088.095333.00733.014667.014667.033.00733.014667.014667.033.051333.1063334.1246667.242.073333.13200006.198.2493334.1246667.11733334.3080001.19800002.187.0806667.462.0806667.275 0 .4803334-.088.209-.0916667.3446667-.23466668.1393333-.14300002.209-.319.069667-.176.069667-.3483334 0-.2126667-.058667-.3886667-.055-.176-.2053334-.3043334-.1466666-.1283333-.4106667-.2016666-.2603333-.073333-.671-.073333v-.473q.3336667-.00367.5683334-.073333.2383333-.069667.3886667-.1906666.1503333-.1210001.2163333-.2896667.069667-.1686667.069667-.3740001 0-.2273333-.073333-.396-.069667-.1686667-.1943333-.2786667-.1246667-.11-.297-.165-.1686667-.055-.3666667-.055-.1980001 0-.3666667.058667-.1686667.058667-.3006667.165-.1283334.1026666-.2163334.2493333-.088.143-.132.3116667-.029333.1063334-.088.154-.058667.047667-.1503333.047667-.018333 0-.040333 0-.018333-.00367-.044-.00733l-.341-.058667q.051333-.3593334.198-.6343334.1466667-.2786667.3703334-.4656667.2273333-.187.517-.2823334.2933334-.099.6306667-.099z"/><path d="m7.1206675-.40333337q0-.0953333.033-.17966668.036667-.0843333.095333-.14666668.062333-.0623333.1466666-.099.084333-.0366667.1796667-.0366667.095333 0 .1796667.0366667.084333.0366667.1466667.099.062333.0623333.095333.14666668.036667.0843333.036667.17966668 0 .099-.036667.18333335-.033.0806667-.095333.14300001-.062333.06233334-.1466663.09533334-.0843333.03666667-.1796667.03666667-.095333 0-.1796667-.03666667-.084333-.033-.1466666-.09533334-.058667-.06233334-.095333-.14300001-.033-.0843333-.033-.18333335z"/><path d="m10.556335-5.3130005q.333666 0 .623333.099.289667.099.498667.2896667.212666.1870001.333666.4583334.121.2713334.121.6160001 0 .2933333-.088.5426667-.088.2493333-.238333.4803334-.150333.2273333-.348333.4436667-.194334.2126666-.414334.4363333l-1.3823331 1.41533349q.1466667-.0403333.297-.0623333.1503331-.0256667.2896671-.0256667h1.76q.106333 0 .168666.0623333.06233.0623333.06233.16133335v.39600003h-3.5053338v-.22366669q0-.0696667.025667-.14300001.029333-.0733333.091667-.13566668l1.6830038-1.69033349q.209-.2126666.381333-.407.172333-.198.293333-.396.124667-.198.190667-.3996667.066-.2053334.066-.4363334 0-.231-.07333-.4033334-.07333-.176-.201667-.2896667-.128333-.1136666-.300667-.1686666-.172333-.058667-.370333-.058667-.198 0-.366667.058667-.1686664.058667-.3006664.165-.1283333.1026666-.22.2456667-.088.143-.1246667.3153333-.029333.1063334-.088.154-.058667.047667-.154.047667-.018333 0-.040333 0-.018333-.00367-.044-.00733l-.341-.058667q.051333-.3593334.198-.6343334.1466667-.2786667.3703334-.4656667.2273334-.187.517-.2823334.2933331-.099.6306671-.099z"/><path d="m14.989334-3.2193336q.315334 0 .597667.1063333.282334.1026667.495.3043334.212667.198.337334.4913334.124666.2896667.124666.6636667 0 .363-.132.67466672-.132.31166669-.370333.54266671-.234667.23100002-.568334.36300003-.333666.13200001-.733333.13200001-.396 0-.718667-.12466668-.319-.12833334-.546333-.35933336-.227333-.23466669-.352-.56466672-.121-.33366671-.121-.74433341 0-.3446667.154-.7333334.154-.3886667.487667-.8360001l1.331-1.7930001q.05133-.066.143-.11.09167-.047667.209-.047667h.579333l-1.822333 2.3063335q.187-.1283333.414333-.198.227333-.073333.491333-.073333zm-1.356666 1.5986668q0 .253.07333.462.07333.20900005.212667.3593334.143.15033334.344666.23466668.205334.0806667.465667.0806667.264 0 .476667-.0843333.212666-.0843333.363-.23466669.154-.15033335.234667-.35566673.08433-.2053333.08433-.4473333 0-.2566667-.08067-.4620001-.08067-.209-.227333-.352-.146667-.1466667-.352-.2236667-.205334-.077-.451-.077-.264 0-.476667.091667-.212667.088-.363.242-.146667.1503333-.227333.352-.077.198-.077.4143334z"/><path d="m19.063002-5.3130005q.333666 0 .623333.099.289667.099.498667.2896667.212667.1870001.333667.4583334.121.2713334.121.6160001 0 .2933333-.088.5426667-.088.2493333-.238334.4803334-.150333.2273333-.348333.4436667-.194333.2126666-.414333.4363333l-1.382334 1.41533349q.146667-.0403333.297-.0623333.150333-.0256667.289667-.0256667h1.76q.106333 0 .168667.0623333.06233.0623333.06233.16133335v.39600003h-3.505334v-.22366669q0-.0696667.02567-.14300001.02933-.0733333.09167-.13566668l1.683-1.69033352q.209-.2126666.381333-.407.172334-.198.293334-.396.124666-.198.190666-.3996667.066-.2053334.066-.4363334 0-.231-.07333-.4033334-.07333-.176-.201667-.2896667-.128333-.1136666-.300667-.1686666-.172333-.058667-.370333-.058667-.198 0-.366667.058667-.168666.058667-.300666.165-.128334.1026666-.22.2456667-.088.143-.124667.3153333-.02933.1063334-.088.154-.05867.047667-.154.047667-.01833 0-.04033 0-.01833-.00367-.044-.00733l-.341-.058667q.05133-.3593334.198-.6343334.146666-.2786667.370333-.4656667.227333-.187.517-.2823334.293333-.099.630667-.099z"/><path d="m22.165002-.49866671h1.129334v-3.58233369q0-.1613333.011-.3263333l-.938667.8030001q-.03667.029333-.07333.044-.03667.011-.06967.011-.055 0-.099-.022-.044-.025667-.066-.058667l-.205333-.2823334 1.562-1.3530001h.531667v4.76666709h1.034v.49866671h-2.816001v-.49866671z"/></g></g></g><g clip-path="url(#ak)"><g transform="translate(69 259)"><g transform="scale(1 -1)"><path d="m2.1285-3.289v3.289h-1.0615v-7.8815h2.2275q.748 0 1.2925.154.5445.1485.8965.4345.3575.286.528.693.1705.4015.1705.902 0 .418-.132.781-.132.363-.385.6545-.2475.286-.6105.4895-.3575.2035-.814.308.198.1155.352.3355l2.299 3.1295h-.946q-.2915 0-.429-.2255l-2.046-2.816q-.0935-.132-.2035-.187-.11-.0605-.33-.0605zm0-.7755h1.1165q.4675 0 .8195-.11.3575-.1155.594-.319.242-.209.363-.495.121-.286.121-.6325 0-.704-.4675-1.0615-.462-.3575-1.3805-.3575h-1.166z"/></g></g><g transform="translate(69 259)"><g transform="matrix(1 0 0 -1 7.084 0)"><path d="m1.903-9.0035q.286 0 .517.0825.2365.0825.4015.231.165.1485.253.363.0935.209.0935.4675 0 .22-.0715.4125-.066.187-.1815.3575-.1155.1705-.264.33-.1485.1595-.3135.3245l-.891.9075q.1265-.033.253-.055.132-.022.2475-.022h1.0725q.1155 0 .176.0605.066.0605.066.1705v.4235h-2.8105v-.2365q0-.0715.0275-.1485.0275-.077.0935-.143l1.2155-1.2045q.1375-.1375.2585-.2805.121-.143.209-.286.088-.1485.1375-.2915.055-.1485.055-.297 0-.2805-.165-.429-.165-.154-.4125-.154-.253 0-.4125.132-.154.132-.231.363-.044.077-.099.121-.0495.044-.143.044-.022 0-.0495 0-.022-.0055-.0495-.011l-.3905-.066q.0825-.583.462-.8745.3795-.2915.946-.2915z"/></g></g><g transform="translate(69 259)"><g transform="matrix(1 0 0 -1 12.859 0)"><path d="m .825-3.157h4.7245v.7425h-4.7245zm0-1.8425h4.7245v.7425h-4.7245z"/><path d="m14.553-3.938q0 1.034-.2255 1.793-.22.7535-.605 1.2485-.385.495-.913.737-.5225.242-1.122.242-.605 0-1.1275-.242-.517-.242-.9019997-.737-.385-.495-.605-1.2485-.22-.759-.22-1.793 0-1.034.22-1.793.22-.759.605-1.254.3849997-.5005.9019997-.7425.5225-.242 1.1275-.242.5995 0 1.122.242.528.242.913.7425.385.495.605 1.254.2255.759.2255 1.793zm-1.0175 0q0-.902-.154-1.5125-.1485-.616-.407-.99-.253-.374-.5885-.5335-.3355-.165-.6985-.165-.363 0-.6985.165-.3355.1595-.5885.5335-.253.374-.4069997.99-.1485.6105-.1485 1.5125 0 .902.1485 1.5125.1539997.6105.4069997.9845.253.374.5885.539.3355.1595.6985.1595.363 0 .6985-.1595.3355-.165.5885-.539.2585-.374.407-.9845.154-.6105.154-1.5125z"/><path d="m15.367-.605q0-.143.0495-.2695.055-.1265.143-.22.0935-.0935.22-.1485.1265-.055.2695-.055.143 0 .2695.055.1265.055.22.1485.0935.0935.143.22.055.1265.055.2695 0 .1485-.055.275-.0495.121-.143.2145-.0935.0935-.22.143-.1265.055-.2695.055-.143 0-.2695-.055-.1265-.0495-.22-.143-.088-.0935-.143-.2145-.0495-.1265-.0495-.275z"/><path d="m20.3995.088q-.5885 0-1.078-.154-.4895-.1595-.8415-.451-.352-.2915-.5445-.704-.1925-.418-.1925-.935 0-.759.396-1.2485.396-.495 1.133-.704-.6215-.231-.9405-.6875-.3135-.462-.3135-1.1 0-.4345.1705-.814.1705-.3795.484-.66.3135-.2805.748-.44.44-.1595.979-.1595.5335 0 .9735.1595.44.1595.7535.44.3135.2805.484.66.1705.3795.1705.814 0 .638-.319 1.1-.319.4565-.935.6875.737.209 1.133.704.396.4895.396 1.2485 0 .517-.198.935-.1925.4125-.5445.704-.3465.2915-.836.451-.4895.154-1.078.154zm0-.781q.385 0 .6875-.1045.308-.11.517-.3025.2145-.198.3245-.4675.1155-.275.1155-.605 0-.407-.1375-.693-.132-.2915-.363-.473-.2255-.1815-.5225-.264-.297-.088-.6215-.088-.3245 0-.6215.088-.297.0825-.528.264-.2255.1815-.363.473-.132.286-.132.693 0 .33.11.605.1155.2695.3245.4675.2145.1925.517.3025.308.1045.693.1045zm0-3.784q.385 0 .6545-.1155.275-.121.4455-.3135.1705-.198.2475-.451.077-.253.077-.5225 0-.275-.0935-.517-.088-.242-.2695-.4235-.176-.1815-.4455-.286-.264-.1045-.616-.1045-.352 0-.6215.1045-.264.1045-.4455.286-.176.1815-.2695.4235-.088.242-.088.517 0 .2695.077.5225.077.253.2475.451.1705.1925.44.3135.275.1155.66.1155z"/><path d="m27.169999-4.829q.473 0 .8965.1595.4235.154.7425.4565.319.297.506.737.187.4345.187.9955 0 .5445-.198 1.012-.198.4675-.5555.814-.352.3465-.8525.5445-.5005.198-1.1.198-.594 0-1.078-.187-.4785-.1925-.8195-.539-.341-.352-.528-.847-.1815-.5005-.1815-1.1165 0-.517.231-1.1.231-.583.7315-1.254l1.9965-2.6895q.077-.099.2145-.165.1375-.0715.3135-.0715h.869l-2.7335 3.4595q.2805-.1925.6215-.297.341-.11.737-.11zm-2.035 2.398q0 .3795.11.693.11.3135.319.539.2145.2255.517.352.308.121.6985.121.396 0 .715-.1265.319-.1265.5445-.352.231-.2255.352-.5335.1265-.308.1265-.671 0-.385-.121-.693-.121-.3135-.341-.528-.22-.22-.528-.3355-.308-.1155-.6765-.1155-.396 0-.715.1375-.319.132-.5445.363-.22.2255-.341.528-.1155.297-.1155.6215z"/><path d="m35.937-7.8815v.44q0 .187-.044.308-.0385.121-.0825.2035l-3.2615 6.5835q-.0715.143-.198.2475-.1265.099-.341.099h-.6985l3.311-6.501q.0715-.1375.143-.253.077-.1155.1705-.22h-4.114q-.0935 0-.1705-.0715-.0715-.077-.0715-.1705v-.6655z"/><path d="m39.6605-7.9695q.5005 0 .935.1485.4345.1485.748.4345.319.2805.5005.6875.1815.407.1815.924 0 .44-.132.814-.132.374-.3575.7205-.2255.341-.5225.6655-.2915.319-.6215.6545l-2.0735 2.123q.22-.0605.4455-.0935.2255-.0385.4345-.0385h2.64q.1595 0 .253.0935.0935.0935.0935.242v.594h-5.258v-.3355q0-.1045.0385-.2145.044-.11.1375-.2035l2.5245-2.5355q.3135-.319.572-.6105.2585-.297.44-.594.187-.297.286-.5995.099-.308.099-.6545 0-.3465-.11-.605-.11-.264-.3025-.4345-.1925-.1705-.451-.253-.2585-.088-.5555-.088-.297 0-.55.088-.253.088-.451.2475-.1925.154-.33.3685-.132.2145-.187.473-.044.1595-.132.231-.088.0715-.231.0715-.0275 0-.0605 0-.0275-.0055-.066-.011l-.5115-.088q.077-.539.297-.9515.22-.418.5555-.6985.341-.2805.7755-.4235.44-.1485.946-.1485z"/></g></g></g><g clip-path="url(#al)"><path d="m91 304c0-1.6569-1.34315-3-3-3-1.65685 0-3 1.3431-3 3 0 1.6569 1.34315 3 3 3 1.65685 0 3-1.3431 3-3z"/><g transform="translate(100 300)"><g transform="scale(1 -1)"><path d="m4.395-2.59q.07.12.12.255.055.13.105.265.05-.14.105-.265.055-.13.125-.26l2.425-4.405q.065-.115.135-.14.07-.025.2-.025h.715v7.165h-.85v-5.265q0-.105.005-.225.005-.12.015-.245l-2.455 4.48q-.125.225-.35.225h-.14q-.225 0-.35-.225l-2.51-4.495q.015.13.02.255.01.125.01.23v5.265h-.85v-7.165h.715q.13 0 .2.025.07.025.135.14z"/><path d="m11.935-5.145q.455 0 .84.155.385.15.665.44.28.285.435.71.16.42.16.96 0 .21-.045.28-.045.07-.17.07h-3.37q.01.48.13.835.12.355.33.595.21.235.5.355.29.115.65.115.335 0 .575-.075.245-.08.42-.17.175-.09.29-.165.12-.08.205-.08.11 0 .17.085l.25.325q-.165.2-.395.35-.23.145-.495.24-.26.095-.54.14-.28.05-.555.05-.525 0-.97-.175-.44-.18-.765-.52-.3200002-.345-.5000002-.85-.18-.505-.18-1.16 0-.53.16-.99.165-.46.4700002-.795.305-.34.745-.53.44-.195.99-.195zm.02.655q-.645 0-1.015.375-.37.37-.46 1.03h2.755q0-.31-.085-.565-.085-.26-.25-.445-.165-.19-.405-.29-.235-.105-.54-.105z"/><path d="m15.17 0v-5.065h.51q.145 0 .2.055.055.055.075.19l.06.79q.26-.53.64-.825.385-.3.9-.3.21 0 .38.05.17.045.315.13l-.115.665q-.035.125-.155.125-.07 0-.215-.045-.145-.05-.405-.05-.465 0-.78.27-.31.27-.52.785v3.225z"/><path d="m20.904999-5.15q.33 0 .615.075.29.07.525.21h1.375v.33q0 .165-.21.21l-.575.08q.17.325.17.725 0 .37-.145.675-.14.3-.395.515-.25.215-.6.33-.345.115-.76.115-.355 0-.67-.085-.16.1-.245.215-.08.115-.08.225 0 .18.145.275.145.09.385.13.24.04.545.05.305.01.62.035.32.02.625.075.305.055.545.18.24.125.385.345.145.22.145.57 0 .325-.165.63-.16.305-.465.54-.305.24-.745.38-.44.145-.995.145-.555 0-.975-.11-.415-.11-.69-.295-.275-.185-.415-.43-.135-.24-.135-.505 0-.375.235-.635.24-.265.655-.42-.215-.1-.345-.265-.125-.17-.125-.45 0-.11.04-.225.04-.12.12-.235.085-.115.205-.22.12-.105.28-.185-.375-.21-.59-.555-.21-.35-.21-.815 0-.37.14-.67.145-.305.4-.515.255-.215.605-.33.355-.115.775-.115zm1.58 5.425q0-.19-.105-.305-.105-.115-.285-.175-.18-.065-.415-.095-.235-.03-.495-.04-.26-.015-.53-.03-.27-.015-.515-.055-.285.135-.465.33-.175.195-.175.465 0 .17.085.315.09.15.27.255.18.11.45.17.275.065.645.065.36 0 .645-.065.285-.065.48-.185.2-.12.305-.285.105-.165.105-.365zm-1.58-2.75q.27 0 .475-.075.21-.075.35-.21.14-.135.21-.32.07-.19.07-.415 0-.465-.285-.74-.28-.275-.82-.275-.535 0-.82.275-.28.275-.28.74 0 .225.07.415.075.185.215.32.14.135.345.21.205.075.47.075z"/><path d="m26.315-5.145q.455 0 .84.155.385.15.665.44.28.285.435.71.16.42.16.96 0 .21-.045.28-.045.07-.17.07h-3.37q.01.48.13.835.12.355.33.595.21.235.5.355.29.115.65.115.335 0 .575-.075.245-.08.42-.17.175-.09.29-.165.12-.08.205-.08.11 0 .17.085l.25.325q-.165.2-.395.35-.23.145-.495.24-.26.095-.54.14-.28.05-.555.05-.525 0-.97-.175-.44-.18-.765-.52-.32-.345-.5-.85-.18-.505-.18-1.16 0-.53.16-.99.165-.46.47-.795.305-.34.745-.53.44-.195.99-.195zm.02.655q-.645 0-1.015.375-.37.37-.46 1.03h2.755q0-.31-.085-.565-.085-.26-.25-.445-.165-.19-.405-.29-.235-.105-.54-.105z"/><path d="m32.45-4.23q-.06.11-.185.11-.075 0-.17-.055-.095-.055-.235-.12-.135-.07-.325-.125-.19-.06-.45-.06-.225 0-.405.06-.18.055-.31.155-.125.1-.195.235-.065.13-.065.285 0 .195.11.325.115.13.3.225.185.095.42.17.235.07.48.155.25.08.485.18.235.1.42.25.185.15.295.37.115.215.115.52 0 .35-.125.65-.125.295-.37.515-.245.215-.6.34-.355.125-.82.125-.53 0-.96-.17-.43-.175-.73-.445l.21-.34q.04-.065.095-.1.055-.035.145-.035.09 0 .19.07.1.07.24.155.145.085.345.155.205.07.51.07.26 0 .455-.065.195-.07.325-.185.13-.115.19-.265.065-.15.065-.32 0-.21-.115-.345-.11-.14-.295-.235-.185-.1-.425-.17-.235-.075-.485-.155-.245-.08-.485-.18-.235-.105-.42-.26-.185-.155-.3-.38-.11-.23-.11-.555 0-.29.12-.555.12-.27.35-.47.23-.205.565-.325.335-.12.765-.12.5 0 .895.16.4.155.69.43z"/></g></g></g><g clip-path="url(#am)"><g/><g><g clip-path="url(#an)"><g/><g fill="none" stroke="#000" stroke-width="2"><g clip-path="url(#ao)"><g transform="matrix(1 0 0 -1 158.1747 308.785)"><path d="m-.1746544 4.784988h10.0000004"/></g></g></g></g></g><g transform="translate(174 300)"><g transform="scale(1 -1)"><path d="m1.935-2.68v2.68h-.965v-7.165h2.115q.68 0 1.18.16.505.155.835.445.33.29.49.7.165.41.165.915 0 .5-.175.915-.175.415-.515.715-.335.3-.835.47-.5.165-1.145.165zm0-.77h1.15q.415 0 .73-.11.32-.11.535-.305.215-.2.325-.475.11-.275.11-.605 0-.685-.425-1.07-.42-.385-1.275-.385h-1.15z"/><path d="m8.74-5.145q.555 0 1 .185.45.185.76.525.315.34.48.825.17.48.17 1.075 0 .6-.17 1.08-.165.48-.48.82-.31.34-.76.525-.445.18-1 .18-.555 0-1.005-.18-.445-.185-.76-.525-.315-.34-.485-.82-.17-.48-.17-1.08 0-.595.17-1.075.17-.485.485-.825.315-.34.76-.525.45-.185 1.005-.185zm0 4.52q.75 0 1.12-.5.37-.505.37-1.405 0-.905-.37-1.41-.37-.505-1.12-.505-.38 0-.66.13-.28.13-.47.375-.185.245-.28.605-.09.355-.09.805 0 .45.09.805.095.355.28.6.19.24.47.37.28.13.66.13z"/><path d="m11.59-5.065h.7q.11 0 .18.055.07.055.095.13l.97 3.26q.04.18.075.35.035.165.06.335.04-.17.09-.335.05-.17.105-.35l1.07-3.28q.025-.075.085-.125.065-.05.16-.05h.385q.1 0 .165.05.065.05.09.125l1.045 3.28q.055.175.095.345.045.17.085.335.025-.165.065-.345.04-.18.085-.335l.99-3.26q.025-.08.095-.13.07-.055.165-.055h.67l-1.64 5.065h-.705q-.13 0-.18-.17l-1.12-3.435q-.04-.115-.065-.23-.025-.12-.05-.235-.025.115-.05.235-.025.12-.065.235l-1.135 3.43q-.055.17-.205.17h-.67z"/><path d="m21.915-5.145q.455 0 .84.155.385.15.665.44.28.285.435.71.16.42.16.96 0 .21-.045.28-.045.07-.17.07h-3.37q.01.48.13.835.12.355.33.595.21.235.5.355.29.115.65.115.335 0 .575-.075.245-.08.42-.17.175-.09.29-.165.12-.08.205-.08.11 0 .17.085l.25.325q-.165.2-.395.35-.23.145-.495.24-.26.095-.54.14-.28.05-.555.05-.525 0-.97-.175-.44-.18-.765-.52-.32-.345-.5-.85-.18-.505-.18-1.16 0-.53.16-.99.165-.46.47-.795.305-.34.745-.53.44-.195.99-.195zm.02.655q-.645 0-1.015.375-.37.37-.46 1.03h2.755q0-.31-.085-.565-.085-.26-.25-.445-.165-.19-.405-.29-.235-.105-.54-.105z"/><path d="m25.15 0v-5.065h.51q.145 0 .2.055.055.055.075.19l.06.79q.26-.53.64-.825.385-.3.9-.3.21 0 .38.05.17.045.315.13l-.115.665q-.035.125-.155.125-.07 0-.215-.045-.145-.05-.405-.05-.465 0-.78.27-.31.27-.52.785v3.225z"/><path d="m28.950001-3.375h2.47v.755h-2.47z"/><path d="m33.64-7.365v7.365h-.89v-7.365z"/><path d="m38.93 0h-.395q-.13 0-.21-.04-.08-.04-.105-.17l-.1-.47q-.2.18-.39.325-.19.14-.4.24-.21.095-.45.145-.235.05-.525.05-.295 0-.555-.08-.255-.085-.445-.25-.19-.165-.305-.415-.11-.255-.11-.6 0-.3.165-.575.165-.28.53-.495.37-.215.965-.35.595-.14 1.455-.16v-.395q0-.59-.255-.89-.25-.305-.745-.305-.325 0-.55.085-.22.08-.385.185-.16.1-.28.185-.115.08-.23.08-.09 0-.16-.045-.065-.05-.105-.12l-.16-.285q.42-.405.905-.605.485-.2 1.075-.2.425 0 .755.14.33.14.555.39.225.25.34.605.115.355.115.78zm-2.31-.545q.235 0 .43-.045.195-.05.365-.135.175-.09.33-.215.16-.125.31-.285v-1.055q-.615.02-1.045.1-.43.075-.7.2-.27.125-.395.295-.12.17-.12.38 0 .2.065.345.065.145.175.24.11.09.26.135.15.04.325.04z"/><path d="m39.540001-5.065h.7q.11 0 .18.055.07.055.095.13l.97 3.26q.04.18.075.35.035.165.06.335.04-.17.09-.335.05-.17.105-.35l1.07-3.28q.025-.075.085-.125.065-.05.16-.05h.385q.1 0 .165.05.065.05.09.125l1.045 3.28q.055.175.095.345.045.17.085.335.025-.165.065-.345.04-.18.085-.335l.99-3.26q.025-.08.095-.13.07-.055.165-.055h.67l-1.64 5.065h-.705q-.13 0-.18-.17l-1.12-3.435q-.04-.115-.065-.23-.025-.12-.05-.235-.025.115-.05.235-.025.12-.065.235l-1.135 3.43q-.055.17-.205.17h-.67z"/><path d="m47.630001-3.375h2.47v.755h-2.47z"/><path d="m52.319998-5.065v5.065h-.89v-5.065zm.2-1.59q0 .13-.055.245-.05.11-.14.2-.085.085-.2.135-.115.05-.245.05-.13 0-.245-.05-.11-.05-.2-.135-.085-.09-.135-.2-.05-.115-.05-.245 0-.13.05-.245.05-.12.135-.205.09-.09.2-.14.115-.05.245-.05.13 0 .245.05.115.05.2.14.09.085.14.205.055.115.055.245z"/><path d="m56.79-4.23q-.06.11-.185.11-.075 0-.17-.055-.095-.055-.235-.12-.135-.07-.325-.125-.19-.06-.45-.06-.225 0-.405.06-.18.055-.31.155-.125.1-.195.235-.065.13-.065.285 0 .195.11.325.115.13.3.225.185.095.42.17.235.07.48.155.25.08.485.18.235.1.42.25.185.15.295.37.115.215.115.52 0 .35-.125.65-.125.295-.37.515-.245.215-.6.34-.355.125-.82.125-.53 0-.96-.17-.43-.175-.73-.445l.21-.34q.04-.065.095-.1.055-.035.145-.035.09 0 .19.07.1.07.24.155.145.085.345.155.205.07.51.07.26 0 .455-.065.195-.07.325-.185.13-.115.19-.265.065-.15.065-.32 0-.21-.115-.345-.11-.14-.295-.235-.185-.1-.425-.17-.235-.075-.485-.155-.245-.08-.485-.18-.235-.105-.42-.26-.185-.155-.3-.38-.11-.23-.11-.555 0-.29.12-.555.12-.27.35-.47.23-.205.565-.325.335-.12.765-.12.5 0 .895.16.4.155.69.43z"/><path d="m58.23 0v-7.365h.89v2.98q.325-.345.72-.55.395-.21.91-.21.415 0 .73.14.32.135.53.39.215.25.325.605.11.355.11.785v3.225h-.89v-3.225q0-.575-.265-.89-.26-.32-.8-.32-.395 0-.74.19-.34.19-.63.515v3.73z"/><path d="m63.560001-3.375h2.47v.755h-2.47z"/><path d="m67.289999 0v-7.365h.895v3.03q.315-.365.72-.585.41-.225.935-.225.44 0 .795.165.355.165.605.495.25.325.385.81.135.48.135 1.11 0 .56-.15 1.045-.15.48-.435.835-.28.35-.69.555-.405.2-.915.2-.49 0-.835-.19-.34-.19-.595-.53l-.045.46q-.04.19-.23.19zm2.26-4.435q-.435 0-.765.2-.325.2-.6.565v2.45q.24.33.53.465.295.135.655.135.71 0 1.09-.505.38-.505.38-1.44 0-.495-.09-.85-.085-.355-.25-.58-.165-.23-.405-.335-.24-.105-.545-.105z"/><path d="m73.620003-5.065v3.23q0 .575.265.89.265.315.8.315.39 0 .735-.185.345-.185.635-.515v-3.735h.89v5.065h-.53q-.19 0-.24-.185l-.07-.545q-.33.365-.74.59-.41.22-.94.22-.415 0-.735-.135-.315-.14-.53-.39-.215-.25-.325-.605-.105-.355-.105-.785v-3.23z"/><path d="m79.945.08q-.6 0-.925-.335-.32-.335-.32-.965v-3.1h-.61q-.08 0-.135-.045-.055-.05-.055-.15v-.355l.83-.105.205-1.565q.01-.075.065-.12.055-.05.14-.05h.45v1.745h1.45v.645h-1.45v3.04q0 .32.155.475.155.155.4.155.14 0 .24-.035.105-.04.18-.085.075-.045.125-.08.055-.04.095-.04.07 0 .125.085l.26.425q-.23.215-.555.34-.325.12-.67.12z"/><path d="m81.910004-3.375h2.47v.755h-2.47z"/><path d="m85.609997 1.715v-6.78h.53q.19 0 .24.185l.075.6q.325-.395.74-.635.42-.24.965-.24.435 0 .79.17.355.165.605.495.25.325.385.81.135.485.135 1.115 0 .56-.15 1.045-.15.48-.43.835-.28.35-.69.555-.405.2-.915.2-.47 0-.805-.155-.33-.155-.585-.44v2.24zm2.255-6.15q-.435 0-.765.2-.325.2-.6.565v2.45q.245.33.535.465.295.135.655.135.705 0 1.085-.505.38-.505.38-1.44 0-.495-.09-.85-.085-.355-.25-.58-.165-.23-.405-.335-.24-.105-.545-.105z"/><path d="m91.130002 0v-5.065h.51q.145 0 .2.055.055.055.075.19l.06.79q.26-.53.64-.825.385-.3.9-.3.21 0 .38.05.17.045.315.13l-.115.665q-.035.125-.155.125-.07 0-.215-.045-.145-.05-.405-.05-.465 0-.78.27-.31.27-.52.785v3.225z"/><path d="m97.21-5.145q.555 0 1 .185.45.185.76.525.315.34.48.825.17.48.17 1.075 0 .6-.17 1.08-.165.48-.48.82-.31.34-.76.525-.445.18-1 .18-.555 0-1.005-.18-.445-.185-.76-.525-.315-.34-.485-.82-.17-.48-.17-1.08 0-.595.17-1.075.17-.485.485-.825.315-.34.76-.525.45-.185 1.005-.185zm0 4.52q.75 0 1.12-.5.37-.505.37-1.405 0-.905-.37-1.41-.37-.505-1.12-.505-.38 0-.66.13-.28.13-.47.375-.185.245-.28.605-.09.355-.09.805 0 .45.09.805.095.355.28.6.19.24.47.37.28.13.66.13z"/><path d="m100.75 0v-7.365h.895v3.03q.315-.365.72-.585.41-.225.935-.225.44 0 .795.165.355.165.605.495.25.325.385.81.135.48.135 1.11 0 .56-.15 1.045-.15.48-.435.835-.28.35-.69.555-.405.2-.915.2-.49 0-.835-.19-.34-.19-.595-.53l-.045.46q-.04.19-.23.19zm2.26-4.435q-.435 0-.765.2-.325.2-.6.565v2.45q.24.33.53.465.295.135.655.135.71 0 1.09-.505.38-.505.38-1.44 0-.495-.09-.85-.085-.355-.25-.58-.165-.23-.405-.335-.24-.105-.545-.105z"/><path d="m110.03 0h-.395q-.13 0-.21-.04-.08-.04-.105-.17l-.1-.47q-.2.18-.39.325-.19.14-.4.24-.21.095-.45.145-.235.05-.525.05-.295 0-.555-.08-.255-.085-.445-.25-.19-.165-.305-.415-.11-.255-.11-.6 0-.3.165-.575.165-.28.53-.495.37-.215.965-.35.595-.14 1.455-.16v-.395q0-.59-.255-.89-.25-.305-.745-.305-.325 0-.55.085-.22.08-.385.185-.16.1-.28.185-.115.08-.23.08-.09 0-.16-.045-.065-.05-.105-.12l-.16-.285q.42-.405.905-.605.485-.2 1.075-.2.425 0 .755.14.33.14.555.39.225.25.34.605.115.355.115.78zm-2.31-.545q.235 0 .43-.045.195-.05.365-.135.175-.09.33-.215.16-.125.31-.285v-1.055q-.615.02-1.045.1-.43.075-.7.2-.27.125-.395.295-.12.17-.12.38 0 .2.065.345.065.145.175.24.11.09.26.135.15.04.325.04z"/><path d="m111.41 0v-7.365h.895v3.03q.315-.365.72-.585.41-.225.935-.225.44 0 .795.165.355.165.605.495.25.325.385.81.135.48.135 1.11 0 .56-.15 1.045-.15.48-.435.835-.28.35-.69.555-.405.2-.915.2-.49 0-.835-.19-.34-.19-.595-.53l-.045.46q-.04.19-.23.19zm2.26-4.435q-.435 0-.765.2-.325.2-.6.565v2.45q.24.33.53.465.295.135.655.135.71 0 1.09-.505.38-.505.38-1.44 0-.495-.09-.85-.085-.355-.25-.58-.165-.23-.405-.335-.24-.105-.545-.105z"/><path d="m117.96-7.365v7.365h-.89v-7.365z"/><path d="m121.015 1.495q-.045.1-.115.16-.065.06-.205.06h-.66l.925-2.01-2.09-4.77h.77q.115 0 .18.06.065.055.095.125l1.355 3.19q.045.11.075.22.035.11.06.225.035-.115.07-.225.035-.11.08-.225l1.315-3.185q.03-.08.1-.13.075-.055.16-.055h.71z"/><path d="m124.42-3.375h2.47v.755h-2.47z"/><path d="m128.12 0v-5.065h.53q.19 0 .24.185l.07.55q.33-.365.735-.59.41-.225.945-.225.415 0 .73.14.32.135.53.39.215.25.325.605.11.355.11.785v3.225h-.89v-3.225q0-.575-.265-.89-.26-.32-.8-.32-.395 0-.74.19-.34.19-.63.515v3.73z"/><path d="m135.73-5.145q.555 0 1 .185.45.185.76.525.315.34.48.825.17.48.17 1.075 0 .6-.17 1.08-.165.48-.48.82-.31.34-.76.525-.445.18-1 .18-.555 0-1.005-.18-.445-.185-.76-.525-.315-.34-.485-.82-.17-.48-.17-1.08 0-.595.17-1.075.17-.485.485-.825.315-.34.76-.525.45-.185 1.005-.185zm0 4.52q.75 0 1.12-.5.37-.505.37-1.405 0-.905-.37-1.41-.37-.505-1.12-.505-.38 0-.66.13-.28.13-.47.375-.185.245-.28.605-.09.355-.09.805 0 .45.09.805.095.355.28.6.19.24.47.37.28.13.66.13z"/><path d="m140.77499.08q-.6 0-.925-.335-.32-.335-.32-.965v-3.1h-.61q-.08 0-.135-.045-.055-.05-.055-.15v-.355l.83-.105.205-1.565q.01-.075.065-.12.055-.05.14-.05h.45v1.745h1.45v.645h-1.45v3.04q0 .32.155.475.155.155.4.155.14 0 .24-.035.105-.04.18-.085.075-.045.125-.08.055-.04.095-.04.07 0 .125.085l.26.425q-.23.215-.555.34-.325.12-.67.12z"/><path d="m142.74001-3.375h2.47v.755h-2.47z"/><path d="m146.44001 1.715v-6.78h.53q.19 0 .24.185l.075.6q.325-.395.74-.635.42-.24.965-.24.435 0 .79.17.355.165.605.495.25.325.385.81.135.485.135 1.115 0 .56-.15 1.045-.15.48-.43.835-.28.35-.69.555-.405.2-.915.2-.47 0-.805-.155-.33-.155-.585-.44v2.24zm2.255-6.15q-.435 0-.765.2-.325.2-.6.565v2.45q.245.33.535.465.295.135.655.135.705 0 1.085-.505.38-.505.38-1.44 0-.495-.09-.85-.085-.355-.25-.58-.165-.23-.405-.335-.24-.105-.545-.105z"/><path d="m154.01-5.145q.555 0 1 .185.45.185.76.525.315.34.48.825.17.48.17 1.075 0 .6-.17 1.08-.165.48-.48.82-.31.34-.76.525-.445.18-1 .18-.555 0-1.005-.18-.445-.185-.76-.525-.315-.34-.485-.82-.17-.48-.17-1.08 0-.595.17-1.075.17-.485.485-.825.315-.34.76-.525.45-.185 1.005-.185zm0 4.52q.75 0 1.12-.5.37-.505.37-1.405 0-.905-.37-1.41-.37-.505-1.12-.505-.38 0-.66.13-.28.13-.47.375-.185.245-.28.605-.09.355-.09.805 0 .45.09.805.095.355.28.6.19.24.47.37.28.13.66.13z"/><path d="m156.85999-5.065h.7q.11 0 .18.055.07.055.095.13l.97 3.26q.04.18.075.35.035.165.06.335.04-.17.09-.335.05-.17.105-.35l1.07-3.28q.025-.075.085-.125.065-.05.16-.05h.385q.1 0 .165.05.065.05.09.125l1.045 3.28q.055.175.095.345.045.17.085.335.025-.165.065-.345.04-.18.085-.335l.99-3.26q.025-.08.095-.13.07-.055.165-.055h.67l-1.64 5.065h-.705q-.13 0-.18-.17l-1.12-3.435q-.04-.115-.065-.23-.025-.12-.05-.235-.025.115-.05.235-.025.12-.065.235l-1.135 3.43q-.055.17-.205.17h-.67z"/><path d="m167.185-5.145q.455 0 .84.155.385.15.665.44.28.285.435.71.16.42.16.96 0 .21-.045.28-.045.07-.17.07h-3.37q.01.48.13.835.12.355.33.595.21.235.5.355.29.115.65.115.335 0 .575-.075.245-.08.42-.17.175-.09.29-.165.12-.08.205-.08.11 0 .17.085l.25.325q-.165.2-.395.35-.23.145-.495.24-.26.095-.54.14-.28.05-.555.05-.525 0-.97-.175-.44-.18-.765-.52-.32-.345-.5-.85-.18-.505-.18-1.16 0-.53.16-.99.165-.46.47-.795.305-.34.745-.53.44-.195.99-.195zm.02.655q-.645 0-1.015.375-.37.37-.46 1.03h2.755q0-.31-.085-.565-.085-.26-.25-.445-.165-.19-.405-.29-.235-.105-.54-.105z"/><path d="m170.42 0v-5.065h.51q.145 0 .2.055.055.055.075.19l.06.79q.26-.53.64-.825.385-.3.9-.3.21 0 .38.05.17.045.315.13l-.115.665q-.035.125-.155.125-.07 0-.215-.045-.145-.05-.405-.05-.465 0-.78.27-.31.27-.52.785v3.225z"/><path d="m174.22-3.375h2.47v.755h-2.47z"/><path d="m178.91-7.365v7.365h-.89v-7.365z"/><path d="m184.2 0h-.395q-.13 0-.21-.04-.08-.04-.105-.17l-.1-.47q-.2.18-.39.325-.19.14-.4.24-.21.095-.45.145-.235.05-.525.05-.295 0-.555-.08-.255-.085-.445-.25-.19-.165-.305-.415-.11-.255-.11-.6 0-.3.165-.575.165-.28.53-.495.37-.215.965-.35.595-.14 1.455-.16v-.395q0-.59-.255-.89-.25-.305-.745-.305-.325 0-.55.085-.22.08-.385.185-.16.1-.28.185-.115.08-.23.08-.09 0-.16-.045-.065-.05-.105-.12l-.16-.285q.42-.405.905-.605.485-.2 1.075-.2.425 0 .755.14.33.14.555.39.225.25.34.605.115.355.115.78zm-2.31-.545q.235 0 .43-.045.195-.05.365-.135.175-.09.33-.215.16-.125.31-.285v-1.055q-.615.02-1.045.1-.43.075-.7.2-.27.125-.395.295-.12.17-.12.38 0 .2.065.345.065.145.175.24.11.09.26.135.15.04.325.04z"/><path d="m184.81001-5.065h.7q.11 0 .18.055.07.055.095.13l.97 3.26q.04.18.075.35.035.165.06.335.04-.17.09-.335.05-.17.105-.35l1.07-3.28q.025-.075.085-.125.065-.05.16-.05h.385q.1 0 .165.05.065.05.09.125l1.045 3.28q.055.175.095.345.045.17.085.335.025-.165.065-.345.04-.18.085-.335l.99-3.26q.025-.08.095-.13.07-.055.165-.055h.67l-1.64 5.065h-.705q-.13 0-.18-.17l-1.12-3.435q-.04-.115-.065-.23-.025-.12-.05-.235-.025.115-.05.235-.025.12-.065.235l-1.135 3.43q-.055.17-.205.17h-.67z"/><path d="m196.595.08q-.6 0-.925-.335-.32-.335-.32-.965v-3.1h-.61q-.08 0-.135-.045-.055-.05-.055-.15v-.355l.83-.105.205-1.565q.01-.075.065-.12.055-.05.14-.05h.45v1.745h1.45v.645h-1.45v3.04q0 .32.155.475.155.155.4.155.14 0 .24-.035.105-.04.18-.085.075-.045.125-.08.055-.04.095-.04.07 0 .125.085l.26.425q-.23.215-.555.34-.325.12-.67.12z"/><path d="m198.79 0v-5.065h.51q.145 0 .2.055.055.055.075.19l.06.79q.26-.53.64-.825.385-.3.9-.3.21 0 .38.05.17.045.315.13l-.115.665q-.035.125-.155.125-.07 0-.215-.045-.145-.05-.405-.05-.465 0-.78.27-.31.27-.52.785v3.225z"/><path d="m204.825-5.145q.455 0 .84.155.385.15.665.44.28.285.435.71.16.42.16.96 0 .21-.045.28-.045.07-.17.07h-3.37q.01.48.13.835.12.355.33.595.21.235.5.355.29.115.65.115.335 0 .575-.075.245-.08.42-.17.175-.09.29-.165.12-.08.205-.08.11 0 .17.085l.25.325q-.165.2-.395.35-.23.145-.495.24-.26.095-.54.14-.28.05-.555.05-.525 0-.97-.175-.44-.18-.765-.52-.32-.345-.5-.85-.18-.505-.18-1.16 0-.53.16-.99.165-.46.47-.795.305-.34.745-.53.44-.195.99-.195zm.02.655q-.645 0-1.015.375-.37.37-.46 1.03h2.755q0-.31-.085-.565-.085-.26-.25-.445-.165-.19-.405-.29-.235-.105-.54-.105z"/><path d="m208.06 0v-5.065h.53q.19 0 .24.185l.07.55q.33-.365.735-.59.41-.225.945-.225.415 0 .73.14.32.135.53.39.215.25.325.605.11.355.11.785v3.225h-.89v-3.225q0-.575-.265-.89-.26-.32-.8-.32-.395 0-.74.19-.34.19-.63.515v3.73z"/><path d="m217.185 0q-.19 0-.24-.185l-.08-.615q-.325.395-.745.635-.415.235-.955.235-.435 0-.79-.165-.355-.17-.605-.495-.25-.325-.385-.81-.135-.485-.135-1.115 0-.56.15-1.04.15-.485.43-.84.285-.355.69-.555.405-.205.92-.205.465 0 .795.16.33.155.59.44v-2.81h.89v7.365zm-1.725-.65q.435 0 .76-.2.33-.2.605-.565v-2.45q-.245-.33-.54-.46-.29-.135-.645-.135-.71 0-1.09.505-.38.505-.38 1.44 0 .495.085.85.085.35.25.58.165.225.405.33.24.105.55.105z"/></g></g></g></g></svg>